<svg width="11" height="21" viewBox="0 0 11 21" fill="none" xmlns="http://www.w3.org/2000/svg">
<path d="M1.21602 21H9.78398C10.1069 21 10.4162 20.8619 10.6442 20.6153C10.8723 20.3687 11 20.0343 11 19.6852V1.31484C11 0.965661 10.8723 0.631283 10.6442 0.384678C10.4162 0.138084 10.1069 0 9.78398 0H1.21602C0.544605 0 0 0.588861 0 1.31484V19.6852C0 20.0343 0.127716 20.3687 0.355769 20.6153C0.58383 20.8619 0.893087 21 1.21602 21ZM7.89374 0.525732V1.09389C7.89374 1.16392 7.8682 1.23099 7.82258 1.28031C7.77697 1.32963 7.71494 1.35725 7.65017 1.35725H3.34984C3.21483 1.35725 3.10627 1.23888 3.10627 1.09388V0.525725L7.89374 0.525732ZM0.486222 1.31484C0.486222 0.878847 0.812798 0.525732 1.21602 0.525732H2.61997V1.09389C2.61997 1.52988 2.94654 1.88299 3.34977 1.88299H7.65009C8.05332 1.88299 8.37989 1.52988 8.37989 1.09389V0.525732H9.78384C10.1871 0.525732 10.5136 0.878847 10.5136 1.31484V19.6852C10.5136 20.1212 10.1871 20.4743 9.78384 20.4743H1.21588C0.812658 20.4743 0.486081 20.1212 0.486081 19.6852L0.486222 1.31484ZM2.22314 7.25975H4.73085C4.86039 7.25975 4.98354 7.20353 5.07478 7.10489C5.166 7.00625 5.218 6.87309 5.218 6.73301V3.37434C5.218 3.23526 5.166 3.10112 5.07478 3.00246C4.98355 2.90382 4.8604 2.84859 4.73085 2.84859H2.22314C1.95404 2.84859 1.73692 3.08334 1.73692 3.37432V6.73299C1.73692 6.87306 1.78801 7.00621 1.87923 7.10487C1.97046 7.20351 2.09451 7.25975 2.22314 7.25975ZM2.22314 3.37433H4.73085V6.73301H2.22314V3.37433ZM6.26892 7.25975H8.77662C8.90525 7.25975 9.02931 7.20353 9.12055 7.10489C9.21177 7.00625 9.26286 6.87309 9.26286 6.73301V3.37434C9.26286 3.23526 9.21178 3.10112 9.12055 3.00246C9.02932 2.9038 8.90526 2.84859 8.77662 2.84859H6.26892C5.99981 2.84859 5.78178 3.08334 5.78178 3.37432V6.73299C5.78178 6.87306 5.83378 7.00621 5.92501 7.10487C6.01623 7.20351 6.13937 7.25975 6.26892 7.25975ZM6.26892 3.37433H8.77662V6.73301H6.26892V3.37433ZM2.22314 12.1807H4.73085C4.86039 12.1807 4.98354 12.1255 5.07478 12.0269C5.166 11.9282 5.218 11.7941 5.218 11.655V8.29352C5.218 8.15345 5.166 8.0203 5.07478 7.92164C4.98355 7.82301 4.8604 7.76678 4.73085 7.76678H2.22314C1.95404 7.76678 1.73692 8.00253 1.73692 8.2935V11.655C1.73692 11.794 1.78801 11.9282 1.87923 12.0268C1.97046 12.1255 2.09451 12.1807 2.22314 12.1807ZM2.22314 8.29329H4.73085V11.6547H2.22314V8.29329ZM6.26892 12.1807H8.77662C8.90525 12.1807 9.02931 12.1255 9.12055 12.0269C9.21179 11.9282 9.26286 11.7941 9.26286 11.655V8.29352C9.26286 8.15345 9.21178 8.0203 9.12055 7.92164C9.02933 7.82301 8.90526 7.76678 8.77662 7.76678H6.26892C5.99981 7.76678 5.78178 8.00253 5.78178 8.2935V11.655C5.78178 11.794 5.83378 11.9282 5.92501 12.0268C6.01623 12.1255 6.13937 12.1807 6.26892 12.1807ZM6.26892 8.29329H8.77662V11.6547H6.26892V8.29329ZM2.22314 17.0997H4.73085C4.86039 17.0997 4.98354 17.0435 5.07478 16.9448C5.166 16.8462 5.218 16.713 5.218 16.5729V13.2143C5.218 13.0752 5.166 12.941 5.07478 12.8424C4.98355 12.7438 4.8604 12.6885 4.73085 12.6885H2.22314C1.95404 12.6885 1.73692 12.9233 1.73692 13.2142V16.5729C1.73692 16.713 1.78801 16.8461 1.87923 16.9448C1.97046 17.0434 2.09451 17.0997 2.22314 17.0997ZM2.22314 13.2143H4.73085V16.5729H2.22314V13.2143ZM6.26892 17.0997H8.77662C8.90525 17.0997 9.02931 17.0435 9.12055 16.9448C9.21177 16.8462 9.26286 16.713 9.26286 16.5729V13.2143C9.26286 13.0752 9.21178 12.941 9.12055 12.8424C9.02932 12.7437 8.90526 12.6885 8.77662 12.6885H6.26892C5.99981 12.6885 5.78178 12.9233 5.78178 13.2142V16.5729C5.78178 16.713 5.83378 16.8461 5.92501 16.9448C6.01623 17.0434 6.13937 17.0997 6.26892 17.0997ZM6.26892 13.2143H8.77662V16.5729H6.26892V13.2143ZM7.77961 17.8807H3.22029C3.00227 17.8669 2.78879 17.9517 2.63008 18.1145C2.47135 18.2772 2.38104 18.5031 2.38104 18.7389C2.38104 18.9756 2.47135 19.2015 2.63008 19.3642C2.78881 19.526 3.00229 19.6108 3.22029 19.598H7.77961C7.99764 19.6108 8.21112 19.526 8.36983 19.3642C8.52856 19.2015 8.61887 18.9756 8.61887 18.7389C8.61887 18.5031 8.52856 18.2772 8.36983 18.1145C8.21109 17.9517 7.99762 17.8669 7.77961 17.8807ZM7.77961 19.0723H3.22029C3.13454 19.0802 3.04879 19.0486 2.98494 18.9855C2.92108 18.9223 2.88459 18.8326 2.88459 18.7389C2.88459 18.6452 2.92108 18.5564 2.98494 18.4923C3.04879 18.4291 3.13454 18.3986 3.22029 18.4065H7.77961C7.86536 18.3986 7.95112 18.4291 8.01497 18.4923C8.07883 18.5564 8.11532 18.6452 8.11532 18.7389C8.11532 18.8326 8.07883 18.9223 8.01497 18.9855C7.95111 19.0486 7.86536 19.0802 7.77961 19.0723Z" fill="black"/>
</svg>
