<svg width="21" height="20" viewBox="0 0 21 20" fill="none" xmlns="http://www.w3.org/2000/svg">
<path d="M3.40296 0.000619862H5.69392C6.63051 0.000619862 7.48094 0.383066 8.09769 0.999814C8.71382 1.61594 9.09688 2.46699 9.09688 3.40358V5.69454C9.09688 6.63051 8.71444 7.48156 8.09769 8.09831C7.48094 8.71444 6.63051 9.0975 5.69392 9.0975H3.40296C2.46699 9.0975 1.61594 8.71444 0.999194 8.09831C0.382446 7.48218 0 6.63113 0 5.69454V3.40358C0 2.46699 0.383066 1.61656 0.999194 0.999814C1.61532 0.383686 2.46637 0.000619862 3.40296 0.000619862ZM15.6859 19.0473C16.6789 19.0473 17.5776 18.645 18.2285 17.9942C18.8793 17.3433 19.2816 16.4446 19.2816 15.4516C19.2816 14.4586 18.8793 13.5598 18.2285 12.9089C17.5776 12.2581 16.6789 11.8558 15.6859 11.8558C14.6929 11.8558 13.7941 12.2581 13.1432 12.9089C12.4924 13.5598 12.0901 14.4586 12.0901 15.4516C12.0901 16.4446 12.4924 17.3433 13.1432 17.9942C13.7941 18.645 14.6929 19.0473 15.6859 19.0473ZM18.8992 18.6649C18.0772 19.4874 16.9411 19.9957 15.6859 19.9957C14.4313 19.9957 13.2951 19.4874 12.4726 18.6649C11.65 17.8423 11.1418 16.7061 11.1418 15.4516C11.1418 14.197 11.65 13.0608 12.4726 12.2383C13.2951 11.4157 14.4313 10.9068 15.6859 10.9068C16.9404 10.9068 18.0766 11.4157 18.8992 12.2383C19.7217 13.0602 20.2306 14.1964 20.2306 15.4516C20.2306 16.7061 19.7217 17.8423 18.8992 18.6649ZM3.40296 10.9031H5.69392C6.63051 10.9031 7.48094 11.2862 8.09769 11.9023C8.71382 12.5184 9.09688 13.3695 9.09688 14.3061V16.597C9.09688 17.5336 8.71444 18.3841 8.09769 19.0008C7.48094 19.6169 6.63051 20 5.69392 20H3.40296C2.46699 20 1.61594 19.6176 0.999194 19.0008C0.383066 18.3841 0 17.5336 0 16.597V14.3061C0 13.3701 0.382446 12.5191 0.999194 11.9023C1.61532 11.2862 2.46637 10.9031 3.40296 10.9031ZM5.69392 11.8515H3.40296C2.72857 11.8515 2.11492 12.1279 1.66987 12.573C1.22482 13.018 0.948987 13.6311 0.948987 14.3061V16.597C0.948987 17.2714 1.22544 17.8851 1.67049 18.3301C2.11554 18.7752 2.72857 19.0516 3.40358 19.0516H5.69454C6.36893 19.0516 6.98258 18.7752 7.42763 18.3301C7.87268 17.8851 8.14914 17.2714 8.14914 16.597V14.3061C8.14914 13.6317 7.87268 13.018 7.42763 12.573C6.98258 12.1279 6.36893 11.8515 5.69454 11.8515H5.69392ZM14.5404 0H16.8313C17.7673 0 18.6184 0.382446 19.2351 0.999194C19.8512 1.61532 20.2343 2.46637 20.2343 3.40296V5.69392C20.2343 6.62989 19.8512 7.48094 19.2351 8.09769C18.619 8.71382 17.7679 9.09688 16.8313 9.09688H14.5404C13.6038 9.09688 12.7534 8.71382 12.1366 8.09769C11.5205 7.48156 11.1374 6.63051 11.1374 5.69392V3.40296C11.1374 2.46637 11.5199 1.61594 12.1366 0.999194C12.7534 0.383066 13.6038 0 14.5404 0ZM16.8313 0.948367H14.5404C13.866 0.948367 13.2523 1.22482 12.8073 1.66987C12.3622 2.11492 12.0858 2.72857 12.0858 3.40296V5.69392C12.0858 6.36831 12.3622 6.98196 12.8073 7.42701C13.2523 7.87206 13.866 8.14851 14.5404 8.14851H16.8313C17.5057 8.14851 18.1194 7.87206 18.5644 7.42701C19.0095 6.98196 19.2859 6.36893 19.2859 5.69392V3.40296C19.2859 2.72857 19.0095 2.11492 18.5644 1.66987C18.1194 1.22482 17.5064 0.948367 16.8313 0.948367ZM5.69392 0.948367H3.40296C2.72857 0.948367 2.11492 1.22482 1.66987 1.66987C1.22482 2.11492 0.948367 2.72857 0.948367 3.40296V5.69392C0.948367 6.36831 1.22482 6.98196 1.66925 7.42701C2.1143 7.87206 2.72795 8.14851 3.40234 8.14851H5.6933C6.36769 8.14851 6.98134 7.87206 7.42639 7.42701C7.87144 6.98196 8.1479 6.36893 8.1479 5.69392V3.40296C8.1479 2.72857 7.87144 2.11492 7.42639 1.66987C6.98134 1.22482 6.36769 0.948367 5.6933 0.948367H5.69392Z" fill="white"/>
</svg>
