<svg width="20" height="20" viewBox="0 0 20 20" fill="none" xmlns="http://www.w3.org/2000/svg">
<path d="M10 4.17497C9.72268 4.17497 9.49792 4.39973 9.49792 4.67702V9.99923C9.49792 10.1948 9.60982 10.3651 9.7733 10.4478H9.77233L12.8442 12.2215C12.923 12.2673 13.0096 12.2887 13.0943 12.2887C13.2675 12.2887 13.4368 12.1982 13.5292 12.0376C13.6683 11.7973 13.5856 11.4899 13.3463 11.3517L10.5021 9.70927V4.67701C10.5021 4.3997 10.2773 4.17497 10 4.17497ZM10 1.00411C14.9682 1.00411 18.9956 5.03132 18.9956 9.99833V10.0003C18.9956 14.9673 14.9682 18.9945 10 18.9945C5.03176 18.9945 1.00436 14.9673 1.00436 10.0003V9.99833C1.00436 5.03132 5.03176 1.00411 10 1.00411ZM10 0C4.47702 0 0 4.47681 0 9.99853V10.0005C0 15.5222 4.47702 20 10 20C15.523 20 20 15.5222 20 10.0005V9.99853C20 4.47681 15.523 0 10 0Z" fill="black"/>
</svg>
