<svg width="24" height="24" viewBox="0 0 24 24" fill="none" xmlns="http://www.w3.org/2000/svg">
<path d="M3.39848 2.55643C3.34313 2.50108 3.27741 2.45717 3.20509 2.42721C3.13277 2.39725 3.05525 2.38184 2.97697 2.38184C2.89869 2.38184 2.82117 2.39725 2.74885 2.42721C2.67652 2.45717 2.61081 2.50108 2.55546 2.55643C2.5001 2.61179 2.45619 2.6775 2.42624 2.74982C2.39628 2.82215 2.38086 2.89966 2.38086 2.97795C2.38086 3.05623 2.39628 3.13374 2.42624 3.20607C2.45619 3.27839 2.5001 3.34411 2.55546 3.39946L6.72296 7.56459C4.65894 8.97241 3.22203 11.1265 2.71501 13.5729C2.69906 13.6495 2.69835 13.7284 2.7129 13.8052C2.72746 13.8821 2.757 13.9553 2.79985 14.0207C2.84269 14.0861 2.898 14.1424 2.96261 14.1864C3.02722 14.2304 3.09987 14.2613 3.17641 14.2773C3.25296 14.2932 3.33189 14.2939 3.40871 14.2794C3.48553 14.2648 3.55873 14.2353 3.62413 14.1924C3.68953 14.1496 3.74585 14.0943 3.78988 14.0297C3.8339 13.965 3.86477 13.8924 3.88072 13.8158C4.10802 12.7162 4.5524 11.673 5.18785 10.7472C5.8233 9.8214 6.63705 9.03169 7.58147 8.42428L9.46637 10.308C8.97512 10.6604 8.56641 11.1154 8.2686 11.6415C7.97079 12.1676 7.79101 12.7523 7.74174 13.3548C7.69247 13.9574 7.77489 14.5634 7.98328 15.1309C8.19166 15.6984 8.52103 16.2138 8.94852 16.6413C9.37601 17.0688 9.89139 17.3982 10.4589 17.6066C11.0264 17.8149 11.6325 17.8974 12.235 17.8481C12.8376 17.7988 13.4222 17.619 13.9483 17.3212C14.4744 17.0234 14.9295 16.6147 15.2818 16.1235L20.4174 21.2602C20.5292 21.372 20.6808 21.4348 20.8389 21.4348C20.997 21.4348 21.1486 21.372 21.2604 21.2602C21.3722 21.1484 21.435 20.9968 21.435 20.8387C21.435 20.6806 21.3722 20.529 21.2604 20.4172L3.39848 2.55643ZM12.055 9.53046L16.0594 13.5348C16.019 12.4857 15.5842 11.4904 14.8418 10.748C14.0994 10.0056 13.1041 9.57078 12.055 9.53046ZM8.96627 6.44293L9.92242 7.39908C10.5706 7.23071 11.2376 7.14548 11.9073 7.14545C15.7248 7.14545 19.1195 9.91625 19.9328 13.8158C19.965 13.9706 20.0573 14.1062 20.1895 14.1928C20.3217 14.2795 20.4829 14.3101 20.6377 14.2778C20.7924 14.2456 20.928 14.1533 21.0147 14.0211C21.1013 13.8889 21.1319 13.7277 21.0997 13.5729C20.1745 9.13752 16.3047 5.95474 11.9073 5.95474C10.8893 5.95474 9.89741 6.12501 8.96627 6.44293Z" fill="#8391A1"/>
</svg>
