<svg width="20" height="20" viewBox="0 0 20 20" fill="none" xmlns="http://www.w3.org/2000/svg">
<path d="M1.48145 0.5H7.77734C8.01593 0.5 8.2622 0.620898 8.45996 0.833008C8.66219 1.04996 8.75878 1.30381 8.75879 1.48145V11.4814C8.75879 12.0238 8.31971 12.4629 7.77734 12.4629H1.48145C1.24292 12.4629 0.99754 12.3419 0.799805 12.1299C0.597482 11.9129 0.5 11.6591 0.5 11.4814V1.48145C0.500015 0.939102 0.939102 0.500015 1.48145 0.5Z" stroke="black"/>
<path d="M1.48145 14.9443H7.77734C8.01593 14.9443 8.2622 15.0652 8.45996 15.2773C8.66219 15.4943 8.75878 15.7481 8.75879 15.9258V18.5186C8.75876 19.0609 8.31969 19.5 7.77734 19.5H1.48145C1.24295 19.5 0.997528 19.379 0.799805 19.167C0.5975 18.95 0.500018 18.6962 0.5 18.5186V15.9258C0.500015 15.3834 0.939102 14.9444 1.48145 14.9443Z" stroke="black"/>
<path d="M12.2227 7.53711H18.5186C18.7571 7.53711 19.0034 7.65801 19.2012 7.87012C19.4034 8.08707 19.5 8.34092 19.5 8.51855V18.5186C19.5 19.0609 19.0609 19.5 18.5186 19.5H12.2227C11.9841 19.5 11.7388 19.379 11.541 19.167C11.3387 18.95 11.2412 18.6962 11.2412 18.5186V8.51855C11.2412 7.97621 11.6803 7.53712 12.2227 7.53711Z" stroke="black"/>
<path d="M12.2227 0.5H18.5186C18.7571 0.5 19.0034 0.620898 19.2012 0.833008C19.4034 1.04996 19.5 1.30381 19.5 1.48145V4.07422C19.5 4.61656 19.0609 5.05566 18.5186 5.05566H12.2227C11.9842 5.05565 11.7387 4.93463 11.541 4.72266C11.3387 4.50568 11.2412 4.25189 11.2412 4.07422V1.48145C11.2412 0.939102 11.6803 0.500015 12.2227 0.5Z" stroke="black"/>
</svg>
