<svg width="20" height="20" viewBox="0 0 20 20" fill="none" xmlns="http://www.w3.org/2000/svg">
<path d="M1.48147 0H7.77761C8.59612 0 9.25909 0.818508 9.25909 1.48147V11.4815C9.25909 12.3 8.59612 12.963 7.77761 12.963H1.48147C0.662965 12.963 0 12.1445 0 11.4815V1.48147C0 0.662965 0.662965 0 1.48147 0Z" fill="white"/>
<path d="M1.48147 14.4443H7.77761C8.59612 14.4443 9.25909 15.2628 9.25909 15.9258V18.5185C9.25909 19.337 8.59612 20 7.77761 20H1.48147C0.662965 20 0 19.1815 0 18.5185V15.9258C0 15.1073 0.662965 14.4443 1.48147 14.4443Z" fill="white"/>
<path d="M12.2227 7.03711H18.5188C19.3373 7.03711 20.0003 7.85562 20.0003 8.51858V18.5186C20.0003 19.3371 19.3373 20.0001 18.5188 20.0001H12.2227C11.4042 20.0001 10.7412 19.1816 10.7412 18.5186V8.51858C10.7412 7.70007 11.4042 7.03711 12.2227 7.03711Z" fill="white"/>
<path d="M12.2227 0H18.5188C19.3373 0 20.0003 0.818508 20.0003 1.48147V4.07417C20.0003 4.89268 19.3373 5.55564 18.5188 5.55564H12.2227C11.4042 5.55564 10.7412 4.73713 10.7412 4.07417V1.48147C10.7412 0.662965 11.4042 0 12.2227 0Z" fill="white"/>
</svg>
