<svg width="21" height="19" viewBox="0 0 21 19" fill="none" xmlns="http://www.w3.org/2000/svg">
<path d="M5.20215 7.59058C5.20311 7.60303 5.20316 7.61545 5.2041 7.62769C5.20517 7.64164 5.20502 7.6557 5.20605 7.66968H0.917969C0.917004 7.65722 0.916957 7.6448 0.916016 7.63257C0.914942 7.61861 0.915098 7.60456 0.914062 7.59058H5.20215Z" stroke="black" stroke-width="0.6"/>
<path d="M8.36914 3.84961C8.63089 3.7917 8.87968 3.7955 9.12402 3.87695C9.1642 3.8904 9.22936 3.92882 9.30762 4.00879C9.38324 4.08608 9.45736 4.18813 9.52051 4.30176C9.65601 4.54567 9.69783 4.76935 9.67188 4.88184C9.65398 4.94568 9.59872 5.02951 9.48828 5.17676L9.48242 5.18359L9.47852 5.19043C9.45127 5.2313 9.37808 5.33441 9.36523 5.46289C9.34891 5.62744 9.42911 5.75323 9.51562 5.83984C9.62631 5.95053 9.7199 6.06013 9.82617 6.17969C9.92492 6.29078 10.033 6.40739 10.1602 6.51855V6.51953C10.8642 7.22357 11.7227 7.55752 12.7139 7.55762C12.888 7.55762 13.0284 7.55789 13.1641 7.58496L13.1738 7.58691C13.3302 7.61297 13.4078 7.66464 13.4502 7.71582C13.4935 7.76816 13.5342 7.86172 13.5342 8.03809V8.33203L13.5664 8.36426L13.4678 8.39746C13.1421 8.50601 12.7748 8.45644 12.3564 8.38672L12.3525 8.38574C11.5137 8.25667 10.7722 7.96682 10.0586 7.5127L10.0459 7.50488L10.0312 7.49805L9.93066 7.45312C9.89541 7.43997 9.85835 7.4292 9.82031 7.42188C9.74193 7.40684 9.63994 7.40416 9.53809 7.45117C9.32997 7.54739 9.27895 7.76611 9.26074 7.89355L9.25977 7.90625C9.24366 8.06728 9.21899 8.22953 9.19336 8.40039C9.16811 8.56872 9.14185 8.74567 9.12402 8.92383L9.12305 8.93262C9.10481 9.188 9.12367 9.45135 9.28027 9.66016C9.44115 9.87449 9.6922 9.96021 9.95703 9.99805V9.99707C10.1838 10.0319 10.4178 10.0588 10.6445 10.084L11.3115 10.167L11.3232 10.168C11.8929 10.2313 12.2862 10.394 12.5742 10.6504C12.8638 10.9082 13.0787 11.2891 13.2393 11.8496V11.8506C13.4142 12.4802 13.7004 13.0932 13.9277 13.6777C14.0723 14.1094 14.2257 14.4742 14.3232 14.8643C14.3741 15.068 14.3457 15.2324 14.2705 15.3613C14.1934 15.4933 14.0517 15.6155 13.8311 15.6982L13.8154 15.7041C13.5899 15.8027 13.4204 15.8088 13.292 15.7686C13.1641 15.7284 13.0295 15.6272 12.9033 15.417C12.8249 15.2863 12.756 15.1699 12.7021 15.0596L12.6533 14.9512L12.6504 14.9434L12.4033 14.3574C12.1621 13.7678 11.9347 13.1675 11.7041 12.5781H11.7031C11.6188 12.3327 11.4862 12.1371 11.291 11.9951C11.0976 11.8545 10.8676 11.7839 10.6221 11.7461L10.6191 11.7451L9.19629 11.5381C8.72329 11.4663 8.25123 11.3899 7.7793 11.3057H7.78027C7.36744 11.2292 7.09563 11.0841 6.91016 10.876C6.72191 10.6646 6.59249 10.3554 6.5293 9.89746V9.89551C6.29812 8.27702 6.43093 6.70102 7.02051 5.19434L7.02344 5.1875C7.2714 4.50573 7.68304 4.02328 8.36914 3.84961ZM14.2021 8.51562C14.2558 8.64098 14.3192 8.77778 14.4082 8.89648C14.5447 9.07842 14.7299 9.21288 14.957 9.24316C15.0245 9.25215 15.0907 9.24943 15.1553 9.24023C15.0857 9.25209 15.0182 9.27415 14.9629 9.29785C14.919 9.3167 14.8711 9.34165 14.8271 9.37305C14.7885 9.4007 14.7258 9.45179 14.6855 9.53223C14.635 9.63325 14.6276 9.75381 14.6338 9.84082C14.6389 9.91282 14.6612 10.033 14.7393 10.1367L14.7383 10.1387C14.8039 10.237 14.892 10.3055 14.957 10.3506C14.9911 10.3742 15.0254 10.3955 15.0537 10.4131C15.084 10.4319 15.1065 10.4454 15.127 10.459L15.1426 10.4697L15.1592 10.4775C16.1107 10.9533 16.7678 11.6748 17.1143 12.6826L17.1182 12.6953L17.123 12.707C17.2167 12.9179 17.3552 13.0631 17.5264 13.1553C17.6873 13.2419 17.8606 13.272 18.0049 13.29L18.0166 13.291C18.4605 13.3296 18.8627 13.4395 19.2285 13.6318C18.9318 13.5171 18.6292 13.447 18.3203 13.4268C17.6704 13.3842 17.0192 13.5568 16.3691 13.918L16.3516 13.9277L16.335 13.9404C16.2789 13.9825 16.2215 14.0183 16.1523 14.0615C16.0903 14.1003 16.0183 14.1459 15.9443 14.2002C15.5909 13.1648 15.2357 12.1064 14.8662 11.0566L14.4893 10.0049C14.4153 9.78492 14.3166 9.56938 14.2197 9.36719C14.1191 9.15711 14.0223 8.96464 13.9414 8.77051L13.9375 8.76074L13.9326 8.75195L13.9111 8.70898L14.2021 9V8.51562ZM16.4395 8.22266C16.6154 8.11976 16.7585 8.12974 16.8564 8.17871C16.9593 8.23022 17.0623 8.35049 17.1006 8.55957C17.1636 9.03679 17.162 9.4659 17.042 9.9209C16.9682 10.1719 16.8727 10.2534 16.8184 10.2754C16.7714 10.2943 16.6589 10.307 16.4443 10.1641V10.1631L16.4365 10.1592L16.3633 10.1074C16.2915 10.0518 16.2226 9.98265 16.1455 9.89941C16.0542 9.80081 15.9394 9.66995 15.8105 9.55664H15.8115C15.7228 9.46793 15.5626 9.29788 15.332 9.24023L15.2969 9.23047H15.2598C15.2365 9.23047 15.2128 9.23255 15.1895 9.23535C15.3283 9.2091 15.4589 9.1458 15.5752 9.05859L15.5928 9.0459L15.6074 9.03027C15.6679 8.96977 15.7262 8.90109 15.7754 8.84375C15.828 8.7824 15.8709 8.73165 15.9121 8.69043C16.0164 8.60164 16.1151 8.5062 16.1963 8.42871C16.2864 8.34266 16.3626 8.27457 16.4395 8.22266Z" stroke="black" stroke-width="0.6"/>
<path d="M4.05957 12.4092H7.52051C7.58628 12.4092 7.64693 12.4162 7.72461 12.4248C7.79167 12.4323 7.87309 12.4396 7.96387 12.4414C8.20955 12.4708 8.3181 12.5437 8.36719 12.6084C8.41473 12.6712 8.45412 12.7911 8.41406 13.0293C8.40855 13.0456 8.40193 13.06 8.39844 13.0732C8.39045 13.1036 8.38378 13.1338 8.37988 13.1533C8.37536 13.1759 8.37367 13.1884 8.37109 13.1982L8.37207 13.1973L8.36719 13.207L8.36328 13.2168C8.08817 13.8849 8.17435 14.5748 8.35254 15.1807L8.35645 15.1904C8.4054 15.3373 8.44569 15.4772 8.48828 15.6221C8.52967 15.7628 8.57357 15.9085 8.625 16.0635V16.0645C8.68474 16.2635 8.7786 16.4521 8.95312 16.583C9.12776 16.7138 9.3377 16.7529 9.55664 16.7529H14.2197L14.335 16.7725C14.4382 16.8021 14.5081 16.8592 14.5488 16.9219C14.5992 16.9994 14.6169 17.1057 14.5791 17.2285C14.5735 17.2299 14.5664 17.233 14.5566 17.2344C14.5368 17.2372 14.5105 17.2393 14.4775 17.2393H8.26367C8.18482 17.2266 8.15823 17.209 8.15137 17.2031C8.15053 17.2024 8.13262 17.19 8.12305 17.123L8.12207 17.1152L8.12012 17.1074L8.08301 16.8721C8.07258 16.7923 8.06294 16.7096 8.05176 16.6201C8.03042 16.4494 8.00224 16.2615 7.94531 16.0693H7.94629C7.50415 14.4482 6.09164 13.3944 4.47949 13.5068L4.47461 13.5078C2.88325 13.6462 1.66709 14.7006 1.33789 16.208L1.28418 16.5156C1.26601 16.6278 1.25702 16.7381 1.24902 16.8301C1.24055 16.9275 1.23317 17.0028 1.2207 17.0674C1.19581 17.1791 1.16168 17.2189 1.14258 17.2344C1.12379 17.2495 1.07987 17.2734 0.970703 17.2734C0.73155 17.2734 0.548302 17.2726 0.334961 17.2422C0.323647 17.2406 0.313449 17.2381 0.304688 17.2363C0.306381 17.2272 0.308593 17.2168 0.311523 17.2051L0.313477 17.1982C0.48113 16.4606 0.681316 15.7216 0.884766 14.9756L0.885742 14.9766C1.06774 14.3576 1.11074 13.7816 0.880859 13.1299L0.87793 13.1221L0.836914 13.0049C0.759068 12.7542 0.795428 12.658 0.819336 12.625C0.854298 12.5768 0.977291 12.4931 1.35742 12.4766L1.35645 12.4756C2.23904 12.4416 3.15011 12.4092 4.05957 12.4092Z" stroke="black" stroke-width="0.6"/>
<path d="M16.1338 16.8867C16.1051 15.8532 16.8983 15.0937 17.9658 15.0908C18.9948 15.1214 19.7422 15.8756 19.7422 16.8955C19.742 17.9174 18.9595 18.6992 17.9375 18.6992C16.9158 18.699 16.134 17.9173 16.1338 16.8955V16.8867Z" stroke="black" stroke-width="0.6"/>
<path d="M4.66016 15.125H4.66895C5.71568 15.125 6.46936 15.8963 6.47363 16.9541C6.44436 17.9493 5.65906 18.7282 4.64355 18.6992H4.63574C3.58131 18.6992 2.80211 17.887 2.83105 16.8701V16.8613C2.83106 15.8814 3.63686 15.096 4.66016 15.125Z" stroke="black" stroke-width="0.6"/>
<path d="M2.3877 8.81165C2.39318 8.90844 2.39986 9.00341 2.4043 9.09875C2.41275 9.28049 2.42083 9.46524 2.43848 9.6593L2.46387 9.93176H3.58594L3.61328 9.66125C3.63116 9.48233 3.64001 9.29592 3.64844 9.11047C3.65294 9.01148 3.66044 8.9123 3.66602 8.81165H5.15234V11.3683H0.899414V8.81165H2.3877Z" stroke="black" stroke-width="0.6"/>
<path d="M9.97461 0.351562C10.5923 0.183101 11.2356 0.43426 11.5732 0.99707L11.5742 0.996094C11.6232 1.08285 11.6945 1.14628 11.752 1.18652C11.7932 1.21538 11.8391 1.23933 11.8857 1.26074L11.8428 1.45605C11.768 1.79268 11.7437 2.0138 11.6543 2.25586C11.4006 2.87601 10.7258 3.2307 10.1318 3.0957L10.1221 3.09375L9.98633 3.06152C9.32611 2.87997 8.93424 2.34995 8.90625 1.7168C8.91011 1.08096 9.35562 0.520528 9.97461 0.351562Z" stroke="black" stroke-width="0.6"/>
</svg>
