<svg width="24" height="24" viewBox="0 0 24 24" fill="none" xmlns="http://www.w3.org/2000/svg">
<path d="M7.20215 9.59082C7.20311 9.60327 7.20316 9.61569 7.2041 9.62793C7.20517 9.64188 7.20502 9.65595 7.20605 9.66992H2.91797C2.917 9.65747 2.91696 9.64505 2.91602 9.63281C2.91494 9.61885 2.9151 9.6048 2.91406 9.59082H7.20215Z" stroke="white" stroke-width="0.6"/>
<path d="M10.3691 5.84961C10.6309 5.7917 10.8797 5.7955 11.124 5.87695C11.1642 5.8904 11.2294 5.92882 11.3076 6.00879C11.3832 6.08608 11.4574 6.18813 11.5205 6.30176C11.656 6.54567 11.6978 6.76935 11.6719 6.88184C11.654 6.94568 11.5987 7.02951 11.4883 7.17676L11.4824 7.18359L11.4785 7.19043C11.4513 7.2313 11.3781 7.33441 11.3652 7.46289C11.3489 7.62744 11.4291 7.75323 11.5156 7.83984C11.6263 7.95053 11.7199 8.06013 11.8262 8.17969C11.9249 8.29078 12.033 8.40739 12.1602 8.51855V8.51953C12.8642 9.22357 13.7227 9.55752 14.7139 9.55762C14.888 9.55762 15.0284 9.55789 15.1641 9.58496L15.1738 9.58691C15.3302 9.61297 15.4078 9.66464 15.4502 9.71582C15.4935 9.76816 15.5342 9.86172 15.5342 10.0381V10.332L15.5664 10.3643L15.4678 10.3975C15.1421 10.506 14.7748 10.4564 14.3564 10.3867L14.3525 10.3857C13.5137 10.2567 12.7722 9.96682 12.0586 9.5127L12.0459 9.50488L12.0312 9.49805L11.9307 9.45312C11.8954 9.43997 11.8584 9.4292 11.8203 9.42188C11.7419 9.40684 11.6399 9.40416 11.5381 9.45117C11.33 9.54739 11.2789 9.76611 11.2607 9.89355L11.2598 9.90625C11.2437 10.0673 11.219 10.2295 11.1934 10.4004C11.1681 10.5687 11.1419 10.7457 11.124 10.9238L11.123 10.9326C11.1048 11.188 11.1237 11.4514 11.2803 11.6602C11.4412 11.8745 11.6922 11.9602 11.957 11.998V11.9971C12.1838 12.0319 12.4178 12.0588 12.6445 12.084L13.3115 12.167L13.3232 12.168C13.8929 12.2313 14.2862 12.394 14.5742 12.6504C14.8638 12.9082 15.0787 13.2891 15.2393 13.8496V13.8506C15.4142 14.4802 15.7004 15.0932 15.9277 15.6777C16.0723 16.1094 16.2257 16.4742 16.3232 16.8643C16.3741 17.068 16.3457 17.2324 16.2705 17.3613C16.1934 17.4933 16.0517 17.6155 15.8311 17.6982L15.8154 17.7041C15.5899 17.8027 15.4204 17.8088 15.292 17.7686C15.1641 17.7284 15.0295 17.6272 14.9033 17.417C14.8249 17.2863 14.756 17.1699 14.7021 17.0596L14.6533 16.9512L14.6504 16.9434L14.4033 16.3574C14.1621 15.7678 13.9347 15.1675 13.7041 14.5781H13.7031C13.6188 14.3327 13.4862 14.1371 13.291 13.9951C13.0976 13.8545 12.8676 13.7839 12.6221 13.7461L12.6191 13.7451L11.1963 13.5381C10.7233 13.4663 10.2512 13.3899 9.7793 13.3057H9.78027C9.36744 13.2292 9.09563 13.0841 8.91016 12.876C8.72191 12.6646 8.59249 12.3554 8.5293 11.8975V11.8955C8.29812 10.277 8.43093 8.70102 9.02051 7.19434L9.02344 7.1875C9.2714 6.50573 9.68304 6.02328 10.3691 5.84961ZM16.2021 10.5156C16.2558 10.641 16.3192 10.7778 16.4082 10.8965C16.5447 11.0784 16.7299 11.2129 16.957 11.2432C17.0245 11.2521 17.0907 11.2494 17.1553 11.2402C17.0857 11.2521 17.0182 11.2741 16.9629 11.2979C16.919 11.3167 16.8711 11.3416 16.8271 11.373C16.7885 11.4007 16.7258 11.4518 16.6855 11.5322C16.635 11.6333 16.6276 11.7538 16.6338 11.8408C16.6389 11.9128 16.6612 12.033 16.7393 12.1367L16.7383 12.1387C16.8039 12.237 16.892 12.3055 16.957 12.3506C16.9911 12.3742 17.0254 12.3955 17.0537 12.4131C17.084 12.4319 17.1065 12.4454 17.127 12.459L17.1426 12.4697L17.1592 12.4775C18.1107 12.9533 18.7678 13.6748 19.1143 14.6826L19.1182 14.6953L19.123 14.707C19.2167 14.9179 19.3552 15.0631 19.5264 15.1553C19.6873 15.2419 19.8606 15.272 20.0049 15.29L20.0166 15.291C20.4605 15.3296 20.8627 15.4395 21.2285 15.6318C20.9318 15.5171 20.6292 15.447 20.3203 15.4268C19.6704 15.3842 19.0192 15.5568 18.3691 15.918L18.3516 15.9277L18.335 15.9404C18.2789 15.9825 18.2215 16.0183 18.1523 16.0615C18.0903 16.1003 18.0183 16.1459 17.9443 16.2002C17.5909 15.1648 17.2357 14.1064 16.8662 13.0566L16.4893 12.0049C16.4153 11.7849 16.3166 11.5694 16.2197 11.3672C16.1191 11.1571 16.0223 10.9646 15.9414 10.7705L15.9375 10.7607L15.9326 10.752L15.9111 10.709L16.2021 11V10.5156ZM18.4395 10.2227C18.6154 10.1198 18.7585 10.1297 18.8564 10.1787C18.9593 10.2302 19.0623 10.3505 19.1006 10.5596C19.1636 11.0368 19.162 11.4659 19.042 11.9209C18.9682 12.1719 18.8727 12.2534 18.8184 12.2754C18.7714 12.2943 18.6589 12.307 18.4443 12.1641V12.1631L18.4365 12.1592L18.3633 12.1074C18.2915 12.0518 18.2226 11.9827 18.1455 11.8994C18.0542 11.8008 17.9394 11.6699 17.8105 11.5566H17.8115C17.7228 11.4679 17.5626 11.2979 17.332 11.2402L17.2969 11.2305H17.2598C17.2365 11.2305 17.2128 11.2326 17.1895 11.2354C17.3283 11.2091 17.4589 11.1458 17.5752 11.0586L17.5928 11.0459L17.6074 11.0303C17.6679 10.9698 17.7262 10.9011 17.7754 10.8438C17.828 10.7824 17.8709 10.7317 17.9121 10.6904C18.0164 10.6016 18.1151 10.5062 18.1963 10.4287C18.2864 10.3427 18.3626 10.2746 18.4395 10.2227Z" stroke="white" stroke-width="0.6"/>
<path d="M6.05957 14.4092H9.52051C9.58628 14.4092 9.64693 14.4162 9.72461 14.4248C9.79167 14.4323 9.87309 14.4396 9.96387 14.4414C10.2096 14.4708 10.3181 14.5437 10.3672 14.6084C10.4147 14.6712 10.4541 14.7911 10.4141 15.0293C10.4086 15.0456 10.4019 15.06 10.3984 15.0732C10.3905 15.1036 10.3838 15.1338 10.3799 15.1533C10.3754 15.1759 10.3737 15.1884 10.3711 15.1982L10.3721 15.1973L10.3672 15.207L10.3633 15.2168C10.0882 15.8849 10.1744 16.5748 10.3525 17.1807L10.3564 17.1904C10.4054 17.3373 10.4457 17.4772 10.4883 17.6221C10.5297 17.7628 10.5736 17.9085 10.625 18.0635V18.0645C10.6847 18.2635 10.7786 18.4521 10.9531 18.583C11.1278 18.7138 11.3377 18.7529 11.5566 18.7529H16.2197L16.335 18.7725C16.4382 18.8021 16.5081 18.8592 16.5488 18.9219C16.5992 18.9994 16.6169 19.1057 16.5791 19.2285C16.5735 19.2299 16.5664 19.233 16.5566 19.2344C16.5368 19.2372 16.5105 19.2393 16.4775 19.2393H10.2637C10.1848 19.2266 10.1582 19.209 10.1514 19.2031C10.1505 19.2024 10.1326 19.19 10.123 19.123L10.1221 19.1152L10.1201 19.1074L10.083 18.8721C10.0726 18.7923 10.0629 18.7096 10.0518 18.6201C10.0304 18.4494 10.0022 18.2615 9.94531 18.0693H9.94629C9.50415 16.4482 8.09164 15.3944 6.47949 15.5068L6.47461 15.5078C4.88325 15.6462 3.66709 16.7006 3.33789 18.208L3.28418 18.5156C3.26601 18.6278 3.25702 18.7381 3.24902 18.8301C3.24055 18.9275 3.23317 19.0028 3.2207 19.0674C3.19581 19.1791 3.16168 19.2189 3.14258 19.2344C3.12379 19.2495 3.07987 19.2734 2.9707 19.2734C2.73155 19.2734 2.5483 19.2726 2.33496 19.2422C2.32365 19.2406 2.31345 19.2381 2.30469 19.2363C2.30638 19.2272 2.30859 19.2168 2.31152 19.2051L2.31348 19.1982C2.48113 18.4606 2.68132 17.7216 2.88477 16.9756L2.88574 16.9766C3.06774 16.3576 3.11074 15.7816 2.88086 15.1299L2.87793 15.1221L2.83691 15.0049C2.75907 14.7542 2.79543 14.658 2.81934 14.625C2.8543 14.5768 2.97729 14.4931 3.35742 14.4766L3.35645 14.4756C4.23904 14.4416 5.15011 14.4092 6.05957 14.4092Z" stroke="white" stroke-width="0.6"/>
<path d="M18.1338 18.8867C18.1051 17.8532 18.8983 17.0937 19.9658 17.0908C20.9948 17.1214 21.7422 17.8756 21.7422 18.8955C21.742 19.9174 20.9595 20.6992 19.9375 20.6992C18.9158 20.699 18.134 19.9173 18.1338 18.8955V18.8867Z" stroke="white" stroke-width="0.6"/>
<path d="M6.66016 17.125H6.66895C7.71568 17.125 8.46936 17.8963 8.47363 18.9541C8.44436 19.9493 7.65906 20.7282 6.64355 20.6992H6.63574C5.58131 20.6992 4.80211 19.887 4.83105 18.8701V18.8613C4.83106 17.8814 5.63686 17.096 6.66016 17.125Z" stroke="white" stroke-width="0.6"/>
<path d="M4.3877 10.8115C4.39318 10.9083 4.39986 11.0033 4.4043 11.0986C4.41275 11.2804 4.42083 11.4651 4.43848 11.6592L4.46387 11.9316H5.58594L5.61328 11.6611C5.63116 11.4822 5.64001 11.2958 5.64844 11.1104C5.65294 11.0114 5.66044 10.9122 5.66602 10.8115H7.15234V13.3682H2.89941V10.8115H4.3877Z" stroke="white" stroke-width="0.6"/>
<path d="M11.9746 2.35156C12.5923 2.1831 13.2356 2.43426 13.5732 2.99707L13.5742 2.99609C13.6232 3.08285 13.6945 3.14628 13.752 3.18652C13.7932 3.21538 13.8391 3.23933 13.8857 3.26074L13.8428 3.45605C13.768 3.79268 13.7437 4.0138 13.6543 4.25586C13.4006 4.87601 12.7258 5.2307 12.1318 5.0957L12.1221 5.09375L11.9863 5.06152C11.3261 4.87997 10.9342 4.34995 10.9062 3.7168C10.9101 3.08096 11.3556 2.52053 11.9746 2.35156Z" stroke="white" stroke-width="0.6"/>
</svg>
