<svg width="25" height="25" viewBox="0 0 25 25" fill="none" xmlns="http://www.w3.org/2000/svg">
<g clip-path="url(#clip0_760_5469)">
<path d="M16.5438 16.543L12.4079 12.4071M12.4079 12.4071L8.27208 16.543M12.4079 12.4071V21.7128M21.0829 19.0142C22.0914 18.4644 22.888 17.5944 23.3472 16.5416C23.8063 15.4887 23.9017 14.313 23.6184 13.1999C23.3351 12.0868 22.6892 11.0997 21.7826 10.3945C20.876 9.68925 19.7603 9.30601 18.6117 9.30525H17.3089C16.996 8.09473 16.4127 6.97091 15.6028 6.01827C14.793 5.06564 13.7778 4.30898 12.6334 3.80519C11.4891 3.3014 10.2455 3.06358 8.99597 3.10961C7.7465 3.15565 6.52371 3.48434 5.41955 4.07098C4.31539 4.65761 3.35858 5.48693 2.62107 6.49657C1.88355 7.50622 1.38451 8.66992 1.16148 9.90019C0.938441 11.1305 0.997207 12.3953 1.33336 13.5996C1.66951 14.8039 2.2743 15.9163 3.10225 16.8532" stroke="#042E60" stroke-width="1.93868" stroke-linecap="round" stroke-linejoin="round"/>
</g>
<defs>
<clipPath id="clip0_760_5469">
<rect width="24.8152" height="24.8152" fill="white"/>
</clipPath>
</defs>
</svg>
