<svg width="15" height="15" viewBox="0 0 15 15" fill="none" xmlns="http://www.w3.org/2000/svg">
<path d="M13.1211 5.14776L9.85231 1.87901M13.1211 5.14776L9.03635 9.23239C8.49807 9.77067 7.84472 10.1956 7.09463 10.325C6.33726 10.4556 5.39736 10.4991 4.94913 10.0509C4.50091 9.60266 4.54439 8.66273 4.67501 7.90536C4.80438 7.15526 5.22935 6.50192 5.7676 5.96364L9.85231 1.87901M13.1211 5.14776C13.1211 5.14776 15.5725 2.69619 13.9382 1.06182C12.3038 -0.57256 9.85231 1.87901 9.85231 1.87901M14.3922 7.4461C14.3922 12.7578 12.7578 14.3922 7.4461 14.3922C2.13438 14.3922 0.5 12.7578 0.5 7.4461C0.5 2.13438 2.13438 0.5 7.4461 0.5" stroke="#1B3865" stroke-linecap="round" stroke-linejoin="round"/>
</svg>
