<svg width="21" height="14" viewBox="0 0 21 14" fill="none" xmlns="http://www.w3.org/2000/svg">
<path d="M1.34257 8.94863C2.26699 4.50956 6.13135 1.35544 10.4783 1.35544C14.8238 1.35544 18.6882 4.50956 19.6139 8.94863C19.6506 9.12478 19.7557 9.27915 19.9062 9.37777C20.0567 9.4764 20.2402 9.51121 20.4164 9.47454C20.5925 9.43788 20.7469 9.33274 20.8455 9.18225C20.9441 9.03177 20.9789 8.84827 20.9423 8.67212C19.8891 3.6231 15.4839 0 10.4783 0C5.47261 0 1.06742 3.6231 0.0142399 8.67212C-0.0224277 8.84827 0.0123811 9.03177 0.111009 9.18225C0.209636 9.33274 0.364004 9.43788 0.540152 9.47454C0.7163 9.51121 0.899799 9.4764 1.05028 9.37777C1.20077 9.27915 1.30591 9.12478 1.34257 8.94863ZM10.4647 4.06633C11.7229 4.06633 12.9296 4.56615 13.8193 5.45583C14.7089 6.34551 15.2088 7.55218 15.2088 8.81038C15.2088 10.0686 14.7089 11.2752 13.8193 12.1649C12.9296 13.0546 11.7229 13.5544 10.4647 13.5544C9.2065 13.5544 7.99983 13.0546 7.11015 12.1649C6.22047 11.2752 5.72065 10.0686 5.72065 8.81038C5.72065 7.55218 6.22047 6.34551 7.11015 5.45583C7.99983 4.56615 9.2065 4.06633 10.4647 4.06633Z" fill="#8391A1"/>
</svg>
