<svg width="26" height="28" viewBox="0 0 26 28" fill="none" xmlns="http://www.w3.org/2000/svg">
<path fill-rule="evenodd" clip-rule="evenodd" d="M1.98903 13.6984C1.83867 13.8269 1.61256 13.8097 1.48398 13.6593C1.35542 13.509 1.37264 13.2829 1.523 13.1543C1.80537 12.9132 2.14169 12.7445 2.5067 12.6653C2.64788 11.079 4.34665 10.1562 5.74249 10.8414C6.19588 10.1378 7.00853 9.73952 7.84413 9.81642C8.09665 8.55381 9.38566 7.76067 10.6276 8.08781C11.089 7.11331 12.2059 6.61516 13.2435 6.89751C13.8656 7.06624 14.3867 7.49437 14.6782 8.08781C15.9202 7.76067 17.2092 8.55381 17.4617 9.81642C18.2974 9.73952 19.11 10.1378 19.5634 10.8403C20.9522 10.1528 22.6637 11.0848 22.8003 12.6653C23.1653 12.7445 23.5016 12.9132 23.784 13.1543C23.9344 13.2828 23.9516 13.509 23.8231 13.6593C23.6945 13.8097 23.4684 13.8269 23.318 13.6984C23.0701 13.486 22.7544 13.3563 22.4238 13.3345C22.2287 13.3219 22.0783 13.1531 22.0887 12.9569C22.1598 11.6254 20.6539 10.8736 19.6392 11.63C19.4544 11.7677 19.1824 11.6977 19.0929 11.4796C18.7956 10.7565 18.0025 10.3674 17.246 10.5832C17.021 10.6474 16.7938 10.4776 16.7903 10.2434C16.772 9.12889 15.6092 8.41609 14.6232 8.8649C14.4235 8.95558 14.1951 8.85227 14.1308 8.64681C13.7142 7.31189 12.0154 7.18909 11.3565 8.24622C11.2854 8.361 11.228 8.48726 11.1798 8.62959C11.1109 8.85916 10.8814 8.95558 10.6851 8.86719C9.90224 8.51482 8.99204 8.87752 8.64883 9.63738C8.48355 10.0047 8.53864 10.2078 8.50191 10.3375C8.44796 10.5281 8.24939 10.6383 8.05886 10.5843C7.30245 10.3685 6.49897 10.7668 6.21547 11.4739C6.12823 11.6897 5.8608 11.7757 5.66795 11.6323C4.67051 10.8931 3.21505 11.5921 3.21505 12.8685L3.21734 12.9557C3.22997 13.1531 3.07961 13.323 2.88219 13.3356C2.55391 13.3563 2.23698 13.4872 1.98903 13.6984ZM12.3296 0.395265C12.4192 0.219647 12.635 0.14963 12.8106 0.239161C12.9862 0.328692 13.0562 0.544492 12.9655 0.720092C12.4237 1.7761 12.69 2.36379 12.9678 2.97556C13.3248 3.76412 13.6967 4.58482 12.9735 6.13789C12.8898 6.31695 12.6763 6.395 12.4972 6.31236C12.317 6.22857 12.2401 6.01508 12.3227 5.83601C12.9081 4.58031 12.6051 3.91226 12.3147 3.27177C11.9658 2.49929 11.6295 1.7589 12.3296 0.395265ZM5.08701 2.80568C4.38684 4.16928 4.72314 4.90965 5.07209 5.68098C5.36249 6.32261 5.6655 6.98949 5.08012 8.24522C4.99633 8.42428 5.07438 8.63891 5.25459 8.72157C5.43365 8.80536 5.64828 8.72731 5.73094 8.54825C6.4552 6.99524 6.08331 6.17457 5.72635 5.38592C5.44858 4.77414 5.18227 4.18531 5.72405 3.13045C5.81358 2.95483 5.74471 2.73905 5.56795 2.64952C5.39233 2.55999 5.17769 2.63006 5.08701 2.80568ZM19.5725 2.80568C18.8724 4.16928 19.2075 4.90965 19.5576 5.68098C19.848 6.32261 20.151 6.98949 19.5656 8.24522C19.4819 8.42428 19.5599 8.63891 19.7401 8.72157C19.9192 8.80536 20.1338 8.72731 20.2165 8.54825C20.9407 6.99524 20.5688 6.17457 20.2107 5.38592C19.933 4.77414 19.6666 4.18531 20.2084 3.13045C20.298 2.95483 20.2291 2.73905 20.0523 2.64952C19.8779 2.55999 19.6621 2.63006 19.5725 2.80568ZM8.70832 1.32154C8.00815 2.68515 8.34445 3.42551 8.6934 4.19684C8.98379 4.83848 9.28681 5.50535 8.70143 6.76223C8.61764 6.94129 8.69569 7.15592 8.8759 7.23858C9.05496 7.32237 9.26959 7.24432 9.35225 7.06411C10.0765 5.5111 9.70462 4.69043 9.34651 3.90178C9.06874 3.29 8.80243 2.70117 9.34421 1.64631C9.43374 1.47069 9.36487 1.25491 9.18926 1.16538C9.01364 1.077 8.799 1.14593 8.70832 1.32154ZM15.9509 1.32154C15.2508 2.68515 15.5871 3.42551 15.936 4.19684C16.2264 4.83848 16.5294 5.50535 15.944 6.76223C15.8603 6.94129 15.9383 7.15592 16.1185 7.23858C16.2976 7.32237 16.5122 7.24432 16.5949 7.06411C17.3191 5.5111 16.9472 4.69043 16.5891 3.90178C16.3114 3.29 16.045 2.70117 16.5868 1.64631C16.6764 1.47069 16.6063 1.25491 16.4307 1.16538C16.2563 1.077 16.0405 1.14593 15.9509 1.32154ZM25.0956 15.2491C24.4861 18.7902 22.3971 21.8423 19.4609 23.7258C20.1014 24.4971 20.5674 25.3959 20.7866 26.3727C20.9094 26.9202 20.4893 27.4264 19.9441 27.4264H5.36454C4.81817 27.4264 4.39921 26.919 4.52204 26.3727C4.74127 25.3959 5.20728 24.4971 5.84777 23.7258C2.91164 21.8422 0.823657 18.789 0.213053 15.2491C0.121227 14.7188 0.533282 14.2378 1.06472 14.2378H24.2439C24.7696 14.2378 25.1886 14.7096 25.0956 15.2491ZM18.84 24.0999C15.0086 26.2589 10.3004 26.2589 6.46865 24.0999C5.86261 24.8046 5.42299 25.6253 5.21983 26.5298C5.20031 26.6193 5.25885 26.7089 5.36445 26.7089H19.9452C20.0496 26.7089 20.1093 26.6193 20.0898 26.5298C19.8855 25.6253 19.446 24.8035 18.84 24.0999ZM20.3172 22.2094C22.42 20.4395 23.903 17.9546 24.3896 15.1272C24.4068 15.0297 24.3379 14.9551 24.2449 14.9551L1.06464 14.9562C0.967075 14.9562 0.903943 15.0377 0.920013 15.1284C1.40667 17.9543 2.88852 20.4405 4.99237 22.2106C7.11238 23.9943 9.80285 25.0009 12.6552 25.0009C15.5064 24.9998 18.1967 23.9931 20.3168 22.2094L20.3172 22.2094ZM14.0557 9.97589L13.7401 10.5751C13.6816 10.6864 13.6873 10.8138 13.7435 10.916L13.918 11.2798C14.0029 11.4578 14.2164 11.5335 14.3944 11.4486C14.5723 11.3636 14.648 11.1501 14.5631 10.9722L14.4575 10.7518L14.6905 10.3111C14.7823 10.1355 14.7157 9.91969 14.5401 9.82786C14.3645 9.73374 14.1476 9.80142 14.0557 9.97589ZM20.5329 12.6664L19.5504 12.5665C19.3529 12.547 19.1785 12.6905 19.159 12.8879C19.1394 13.0853 19.2829 13.2598 19.4804 13.2793L20.4629 13.3792C20.6592 13.3987 20.8348 13.2541 20.8543 13.0578C20.8738 12.8615 20.7292 12.6859 20.5329 12.6664ZM16.0827 12.6365L16.4155 13.0853C16.4832 13.176 16.5888 13.2311 16.7025 13.2311H16.7484L16.7782 13.4951C16.8 13.6925 16.978 13.8325 17.1754 13.8107C17.3728 13.7889 17.5128 13.611 17.491 13.4136L17.4268 12.8488C17.4153 12.6606 17.2592 12.5114 17.0686 12.5114H16.8815L16.6566 12.2084C16.5395 12.05 16.3145 12.0167 16.1561 12.1338C15.9977 12.2543 15.9644 12.4781 16.0827 12.6365ZM13.0273 12.7834L13.693 13.083C13.8732 13.1645 14.0856 13.0842 14.1671 12.904C14.2486 12.7237 14.1682 12.5114 13.988 12.4299L13.3223 12.1303C13.1421 12.0488 12.9297 12.1292 12.8482 12.3094C12.7656 12.4896 12.8459 12.7019 13.0273 12.7834ZM12.1079 8.76721L11.6591 8.90036C11.4697 8.9566 11.3607 9.15518 11.4169 9.34456C11.4732 9.53395 11.6717 9.64299 11.8611 9.58675L12.311 9.4536C12.5004 9.39736 12.6095 9.19879 12.5532 9.0094C12.4958 8.82116 12.2973 8.71212 12.1079 8.76721ZM10.2473 11.3992L10.3976 11.965C10.4482 12.1567 10.6444 12.2704 10.835 12.2199C11.0267 12.1693 11.1403 11.9731 11.0898 11.7825L10.9394 11.2166C10.8889 11.025 10.6926 10.9113 10.5021 10.9618C10.3116 11.0123 10.1968 11.2086 10.2473 11.3992ZM5.75474 13.3665L6.62019 12.7605L7.21246 12.9051C7.32494 12.9326 7.43858 12.9028 7.52237 12.8351L8.05496 12.4023C8.20877 12.2772 8.23172 12.0523 8.10661 11.8985C7.9815 11.7446 7.75653 11.7217 7.60273 11.8468L7.20787 12.167L6.63053 12.0259C6.53067 12.0017 6.42621 12.0213 6.34127 12.0809L5.34268 12.78C5.18084 12.8936 5.14181 13.1163 5.2543 13.2781C5.37023 13.44 5.59289 13.479 5.75474 13.3665Z" fill="white" stroke="white" stroke-width="0.4"/>
</svg>
