<svg width="26" height="28" viewBox="0 0 26 28" fill="none" xmlns="http://www.w3.org/2000/svg">
<path fill-rule="evenodd" clip-rule="evenodd" d="M1.98903 13.6982C1.83867 13.8268 1.61256 13.8096 1.48398 13.6592C1.35542 13.5089 1.37264 13.2828 1.523 13.1542C1.80537 12.9131 2.14169 12.7444 2.5067 12.6652C2.64788 11.0789 4.34665 10.156 5.74249 10.8413C6.19588 10.1377 7.00853 9.7394 7.84413 9.8163C8.09665 8.55369 9.38566 7.76055 10.6276 8.08769C11.089 7.11319 12.2059 6.61504 13.2435 6.89739C13.8656 7.06612 14.3867 7.49424 14.6782 8.08769C15.9202 7.76055 17.2092 8.55369 17.4617 9.8163C18.2974 9.7394 19.11 10.1377 19.5634 10.8402C20.9522 10.1526 22.6637 11.0846 22.8003 12.6652C23.1653 12.7444 23.5016 12.9131 23.784 13.1542C23.9344 13.2827 23.9516 13.5088 23.8231 13.6592C23.6945 13.8096 23.4684 13.8268 23.318 13.6982C23.0701 13.4859 22.7544 13.3562 22.4238 13.3344C22.2287 13.3218 22.0783 13.153 22.0887 12.9567C22.1598 11.6253 20.6539 10.8735 19.6392 11.6299C19.4544 11.7676 19.1824 11.6976 19.0929 11.4795C18.7956 10.7564 18.0025 10.3673 17.246 10.583C17.021 10.6473 16.7938 10.4775 16.7903 10.2433C16.772 9.12877 15.6092 8.41596 14.6232 8.86478C14.4235 8.95545 14.1951 8.85215 14.1308 8.64669C13.7142 7.31177 12.0154 7.18897 11.3565 8.2461C11.2854 8.36088 11.228 8.48714 11.1798 8.62947C11.1109 8.85904 10.8814 8.95546 10.6851 8.86707C9.90224 8.51469 8.99204 8.8774 8.64883 9.63726C8.48355 10.0046 8.53864 10.2077 8.50191 10.3374C8.44796 10.528 8.24939 10.6381 8.05886 10.5842C7.30245 10.3684 6.49897 10.7667 6.21547 11.4738C6.12823 11.6895 5.8608 11.7756 5.66795 11.6322C4.67051 10.893 3.21505 11.592 3.21505 12.8683L3.21734 12.9556C3.22997 13.153 3.07961 13.3229 2.88219 13.3355C2.55391 13.3562 2.23698 13.487 1.98903 13.6982ZM12.3296 0.395143C12.4192 0.219525 12.635 0.149508 12.8106 0.239039C12.9862 0.32857 13.0562 0.54437 12.9655 0.71997C12.4237 1.77598 12.69 2.36366 12.9678 2.97544C13.3248 3.764 13.6967 4.5847 12.9735 6.13777C12.8898 6.31683 12.6763 6.39488 12.4972 6.31224C12.317 6.22845 12.2401 6.01496 12.3227 5.83589C12.9081 4.58019 12.6051 3.91214 12.3147 3.27165C11.9658 2.49917 11.6295 1.75877 12.3296 0.395143ZM5.08701 2.80556C4.38684 4.16916 4.72314 4.90952 5.07209 5.68086C5.36249 6.32249 5.6655 6.98937 5.08012 8.2451C4.99633 8.42416 5.07438 8.63879 5.25459 8.72145C5.43365 8.80524 5.64828 8.72719 5.73094 8.54813C6.4552 6.99511 6.08331 6.17444 5.72635 5.3858C5.44858 4.77402 5.18227 4.18519 5.72405 3.13033C5.81358 2.95471 5.74471 2.73893 5.56795 2.6494C5.39233 2.55987 5.17769 2.62994 5.08701 2.80556ZM19.5725 2.80556C18.8724 4.16916 19.2075 4.90952 19.5576 5.68086C19.848 6.32249 20.151 6.98937 19.5656 8.2451C19.4819 8.42416 19.5599 8.63879 19.7401 8.72145C19.9192 8.80524 20.1338 8.72719 20.2165 8.54813C20.9407 6.99511 20.5688 6.17444 20.2107 5.3858C19.933 4.77402 19.6666 4.18519 20.2084 3.13033C20.298 2.95471 20.2291 2.73893 20.0523 2.6494C19.8779 2.55987 19.6621 2.62994 19.5725 2.80556ZM8.70832 1.32142C8.00815 2.68502 8.34445 3.42539 8.6934 4.19672C8.98379 4.83836 9.28681 5.50523 8.70143 6.76211C8.61764 6.94117 8.69569 7.1558 8.8759 7.23846C9.05496 7.32225 9.26959 7.2442 9.35225 7.06399C10.0765 5.51097 9.70462 4.6903 9.34651 3.90166C9.06874 3.28988 8.80243 2.70105 9.34421 1.64619C9.43374 1.47057 9.36487 1.25479 9.18926 1.16526C9.01364 1.07688 8.799 1.1458 8.70832 1.32142ZM15.9509 1.32142C15.2508 2.68502 15.5871 3.42539 15.936 4.19672C16.2264 4.83836 16.5294 5.50523 15.944 6.76211C15.8603 6.94117 15.9383 7.1558 16.1185 7.23846C16.2976 7.32225 16.5122 7.2442 16.5949 7.06399C17.3191 5.51097 16.9472 4.6903 16.5891 3.90166C16.3114 3.28988 16.045 2.70105 16.5868 1.64619C16.6764 1.47057 16.6063 1.25479 16.4307 1.16526C16.2563 1.07688 16.0405 1.1458 15.9509 1.32142ZM25.0956 15.2489C24.4861 18.79 22.3971 21.8422 19.4609 23.7257C20.1014 24.497 20.5674 25.3958 20.7866 26.3726C20.9094 26.9201 20.4893 27.4263 19.9441 27.4263H5.36454C4.81817 27.4263 4.39921 26.9189 4.52204 26.3726C4.74127 25.3958 5.20728 24.497 5.84777 23.7257C2.91164 21.8421 0.823657 18.7889 0.213053 15.2489C0.121227 14.7186 0.533282 14.2377 1.06472 14.2377H24.2439C24.7696 14.2377 25.1886 14.7095 25.0956 15.2489ZM18.84 24.0998C15.0086 26.2588 10.3004 26.2588 6.46865 24.0998C5.86261 24.8045 5.42299 25.6252 5.21983 26.5297C5.20031 26.6192 5.25885 26.7087 5.36445 26.7087H19.9452C20.0496 26.7087 20.1093 26.6192 20.0898 26.5297C19.8855 25.6252 19.446 24.8034 18.84 24.0998ZM20.3172 22.2093C22.42 20.4394 23.903 17.9545 24.3896 15.1271C24.4068 15.0295 24.3379 14.9549 24.2449 14.9549L1.06464 14.9561C0.967075 14.9561 0.903943 15.0376 0.920013 15.1283C1.40667 17.9542 2.88852 20.4403 4.99237 22.2104C7.11238 23.9941 9.80285 25.0008 12.6552 25.0008C15.5064 24.9996 18.1967 23.993 20.3168 22.2093L20.3172 22.2093ZM14.0557 9.97577L13.7401 10.5749C13.6816 10.6863 13.6873 10.8137 13.7435 10.9159L13.918 11.2797C14.0029 11.4576 14.2164 11.5334 14.3944 11.4485C14.5723 11.3635 14.648 11.15 14.5631 10.9721L14.4575 10.7517L14.6905 10.311C14.7823 10.1353 14.7157 9.91956 14.5401 9.82774C14.3645 9.73362 14.1476 9.8013 14.0557 9.97577ZM20.5329 12.6662L19.5504 12.5664C19.3529 12.5469 19.1785 12.6904 19.159 12.8878C19.1394 13.0852 19.2829 13.2597 19.4804 13.2792L20.4629 13.379C20.6592 13.3986 20.8348 13.2539 20.8543 13.0576C20.8738 12.8614 20.7292 12.6858 20.5329 12.6662ZM16.0827 12.6364L16.4155 13.0852C16.4832 13.1759 16.5888 13.231 16.7025 13.231H16.7484L16.7782 13.495C16.8 13.6924 16.978 13.8324 17.1754 13.8106C17.3728 13.7888 17.5128 13.6109 17.491 13.4134L17.4268 12.8487C17.4153 12.6605 17.2592 12.5113 17.0686 12.5113H16.8815L16.6566 12.2083C16.5395 12.0499 16.3145 12.0166 16.1561 12.1336C15.9977 12.2542 15.9644 12.478 16.0827 12.6364ZM13.0273 12.7833L13.693 13.0829C13.8732 13.1644 14.0856 13.084 14.1671 12.9038C14.2486 12.7236 14.1682 12.5113 13.988 12.4298L13.3223 12.1302C13.1421 12.0487 12.9297 12.1291 12.8482 12.3093C12.7656 12.4895 12.8459 12.7018 13.0273 12.7833ZM12.1079 8.76709L11.6591 8.90024C11.4697 8.95648 11.3607 9.15506 11.4169 9.34444C11.4732 9.53383 11.6717 9.64287 11.8611 9.58663L12.311 9.45348C12.5004 9.39724 12.6095 9.19866 12.5532 9.00928C12.4958 8.82104 12.2973 8.712 12.1079 8.76709ZM10.2473 11.399L10.3976 11.9649C10.4482 12.1566 10.6444 12.2702 10.835 12.2197C11.0267 12.1692 11.1403 11.973 11.0898 11.7824L10.9394 11.2165C10.8889 11.0248 10.6926 10.9112 10.5021 10.9617C10.3116 11.0122 10.1968 11.2085 10.2473 11.399ZM5.75474 13.3664L6.62019 12.7603L7.21246 12.905C7.32494 12.9325 7.43858 12.9027 7.52237 12.835L8.05496 12.4022C8.20877 12.2771 8.23172 12.0521 8.10661 11.8983C7.9815 11.7445 7.75653 11.7216 7.60273 11.8467L7.20787 12.1669L6.63053 12.0257C6.53067 12.0016 6.42621 12.0211 6.34127 12.0808L5.34268 12.7798C5.18084 12.8935 5.14181 13.1161 5.2543 13.278C5.37023 13.4398 5.59289 13.4789 5.75474 13.3664Z" fill="black" stroke="black" stroke-width="0.4"/>
</svg>
