<svg width="20" height="20" viewBox="0 0 20 20" fill="none" xmlns="http://www.w3.org/2000/svg">
<path d="M19.7887 9.49027L16.2181 5.91968C15.7682 5.46977 14.9969 5.79114 14.9969 6.42672V9.28319H4.99927C4.6065 9.28319 4.28516 9.60453 4.28516 9.99731C4.28516 10.3901 4.6065 10.7114 4.99927 10.7114H14.9969V13.5679C14.9969 14.2035 15.7682 14.5177 16.2181 14.0749L19.7887 10.5043C20.0672 10.2258 20.0672 9.77594 19.7887 9.49745V9.49027Z" fill="#EA1414"/>
<path d="M2.85647 9.99723C2.85647 11.1755 3.82055 12.1396 4.99883 12.1396H12.8541V19.2808C12.8541 19.7592 12.3828 20.0663 12.0543 19.9878L0.628424 18.5595C0.271365 18.5167 0 18.2096 0 17.8525V2.14193C0 1.78487 0.271365 1.47781 0.628424 1.43494L12.0543 0.00670325C12.4542 -0.0504262 12.8541 0.263786 12.8541 0.713692V7.85488H4.99883C3.82055 7.85488 2.85647 8.81895 2.85647 9.99723Z" fill="#EA1414"/>
</svg>
