<svg width="10" height="16" viewBox="0 0 10 16" fill="none" xmlns="http://www.w3.org/2000/svg">
<path d="M4.71797 2.35542C5.36853 2.35542 5.959 2.61995 6.38813 3.04839C6.81593 3.47682 7.08046 4.06728 7.08046 4.7179C7.08046 5.36852 6.81593 5.95956 6.3875 6.38807C5.95906 6.81587 5.36923 7.0804 4.71798 7.0804C4.06741 7.0804 3.47695 6.81587 3.04782 6.38743C2.62001 5.95837 2.35548 5.36854 2.35548 4.71792C2.35548 4.06672 2.62001 3.47625 3.04845 3.0484C3.47499 2.6206 4.06607 2.35607 4.71797 2.35607V2.35542ZM6.53734 12.1261C6.9082 12.2204 7.23601 12.3432 7.50244 12.4875C8.04985 12.7824 8.37387 13.1836 8.37387 13.6519C8.37387 14.2088 7.90683 14.6759 7.15309 14.9796C6.52151 15.234 5.65892 15.3916 4.71792 15.3916C3.77623 15.3916 2.91426 15.234 2.28274 14.9796C1.52839 14.6759 1.06196 14.2095 1.06196 13.6519C1.06196 13.1836 1.38598 12.7824 1.9334 12.4875C2.19982 12.3432 2.52765 12.2204 2.89849 12.1261C3.07696 12.39 3.25731 12.6545 3.43515 12.9203C3.00101 13.002 2.6308 13.1241 2.3555 13.2722C2.10425 13.4076 1.95618 13.5412 1.95618 13.6513C1.95618 13.8082 2.20805 13.9879 2.61498 14.1518C3.14467 14.3651 3.88765 14.4967 4.71852 14.4967C5.54939 14.4967 6.29306 14.3645 6.82206 14.1518C7.22898 13.9879 7.48086 13.8082 7.48086 13.6513C7.48086 13.5411 7.33214 13.407 7.08153 13.2722C6.80688 13.1241 6.43602 13.002 6.00188 12.9203C6.17972 12.6539 6.35944 12.39 6.53854 12.1261H6.53734ZM8.03783 1.3657C7.18601 0.521479 6.0127 0 4.71727 0C3.42184 0 2.24856 0.521479 1.39671 1.3657C0.548049 2.20676 0.0164602 3.36798 0 4.66228C0 6.65128 1.85243 9.38586 3.39962 11.6705C3.89008 12.3945 4.35017 13.0736 4.71722 13.6786C5.08427 13.0743 5.54436 12.3946 6.03419 11.6712C7.58214 9.3865 9.43381 6.65258 9.43381 4.67249C9.42305 3.3802 8.89018 2.21139 8.0371 1.36586L8.03783 1.3657Z" fill="#042E60"/>
</svg>
