<svg width="23" height="29" viewBox="0 0 23 29" fill="none" xmlns="http://www.w3.org/2000/svg">
<path d="M22.2251 27.1465L20.4416 8.92737C20.4067 8.54271 20.0919 8.26295 19.7073 8.26295H16.3502V5.29054C16.3502 2.45801 14.0422 0.150024 11.2097 0.150024C8.37714 0.150024 6.06915 2.45801 6.06915 5.29054V8.26295H2.71208C2.32741 8.26295 2.01269 8.54271 1.97772 8.92737L0.159302 27.2514C0.124333 27.4612 0.194272 27.671 0.33415 27.8459C0.474028 28.0207 0.683845 28.0907 0.893662 28.0907H21.4907C21.9103 28.0907 22.2251 27.741 22.2251 27.3563C22.26 27.2514 22.26 27.1815 22.2251 27.1465ZM7.57284 5.25557C7.57284 3.26231 9.18144 1.61874 11.2097 1.61874C13.2029 1.61874 14.8465 3.22734 14.8465 5.25557V8.22798H7.57284V5.25557ZM3.41147 9.73167H6.10412V11.2354C6.10412 11.655 6.45382 11.9697 6.83848 11.9697C7.25812 11.9697 7.57284 11.62 7.57284 11.2354V9.73167H14.8115V11.2354C14.8115 11.655 15.1612 11.9697 15.5459 11.9697C15.9655 11.9697 16.2803 11.62 16.2803 11.2354V9.73167H18.9729L20.3367 23.5796H2.04766L3.41147 9.73167ZM1.73293 26.552L1.87281 25.0833H20.5116L20.6514 26.552H1.73293Z" fill="black" stroke="white" stroke-width="0.3"/>
</svg>
