<svg width="23" height="29" viewBox="0 0 23 29" fill="none" xmlns="http://www.w3.org/2000/svg">
<path d="M22.2251 27.1464L20.4416 8.92725C20.4067 8.54259 20.0919 8.26283 19.7073 8.26283H16.3502V5.29042C16.3502 2.45789 14.0422 0.149902 11.2097 0.149902C8.37714 0.149902 6.06915 2.45789 6.06915 5.29042V8.26283H2.71208C2.32741 8.26283 2.01269 8.54259 1.97772 8.92725L0.159302 27.2513C0.124333 27.4611 0.194272 27.6709 0.33415 27.8458C0.474028 28.0206 0.683845 28.0905 0.893662 28.0905H21.4907C21.9103 28.0905 22.2251 27.7409 22.2251 27.3562C22.26 27.2513 22.26 27.1813 22.2251 27.1464ZM7.57284 5.25545C7.57284 3.26219 9.18144 1.61862 11.2097 1.61862C13.2029 1.61862 14.8465 3.22722 14.8465 5.25545V8.22786H7.57284V5.25545ZM3.41147 9.73155H6.10412V11.2352C6.10412 11.6549 6.45382 11.9696 6.83848 11.9696C7.25812 11.9696 7.57284 11.6199 7.57284 11.2352V9.73155H14.8115V11.2352C14.8115 11.6549 15.1612 11.9696 15.5459 11.9696C15.9655 11.9696 16.2803 11.6199 16.2803 11.2352V9.73155H18.9729L20.3367 23.5795H2.04766L3.41147 9.73155ZM1.73293 26.5519L1.87281 25.0832H20.5116L20.6514 26.5519H1.73293Z" fill="white" stroke="white" stroke-width="0.3"/>
</svg>
