<svg width="26" height="29" viewBox="0 0 26 29" fill="none" xmlns="http://www.w3.org/2000/svg">
<path fill-rule="evenodd" clip-rule="evenodd" d="M14.7468 6.25587C14.748 6.2938 14.7416 6.33159 14.728 6.36699C14.7143 6.4024 14.6937 6.43469 14.6673 6.46196C14.6409 6.48923 14.6093 6.51091 14.5744 6.52572C14.5394 6.54053 14.5019 6.54816 14.4639 6.54816C14.426 6.54816 14.3884 6.54053 14.3535 6.52572C14.3185 6.51091 14.2869 6.48923 14.2605 6.46196C14.2342 6.43469 14.2135 6.4024 14.1999 6.36699C14.1862 6.33159 14.1798 6.2938 14.1811 6.25587C14.1812 6.12121 14.1414 5.98954 14.0666 5.87752C13.9919 5.7655 13.8856 5.67817 13.7612 5.62656C13.6369 5.57496 13.5 5.56141 13.3679 5.58763C13.2358 5.61385 13.1145 5.67866 13.0192 5.77386C12.924 5.86906 12.8591 5.99037 12.8328 6.12244C12.8066 6.25451 12.82 6.39141 12.8716 6.51581C12.9231 6.64022 13.0104 6.74654 13.1224 6.82132C13.2344 6.8961 13.366 6.93598 13.5007 6.93592C13.8063 6.93625 14.1012 7.04886 14.3292 7.25236C14.5573 7.45585 14.7026 7.73605 14.7376 8.03967C14.7725 8.34329 14.6947 8.64918 14.5189 8.89919C14.3431 9.1492 14.0816 9.3259 13.784 9.39569V9.89887C13.7842 9.94864 13.7709 9.99752 13.7456 10.0404H17.0132C17.5453 9.37812 17.8794 8.57893 17.9768 7.73499C18.0743 6.89105 17.9312 6.03676 17.564 5.27066C17.1968 4.50457 16.6205 3.85789 15.9016 3.40524C15.1826 2.95259 14.3504 2.71242 13.5009 2.71242C12.6513 2.71242 11.8191 2.95259 11.1002 3.40524C10.3812 3.85789 9.80495 4.50457 9.43776 5.27066C9.07057 6.03676 8.92744 6.89105 9.0249 7.73499C9.12235 8.57893 9.45641 9.37812 9.98854 10.0404H13.2549C13.2298 9.99744 13.2167 9.94859 13.2168 9.89887V9.39569C12.9429 9.33175 12.6986 9.17702 12.5238 8.95666C12.3489 8.7363 12.2538 8.46327 12.2538 8.18197C12.2525 8.14405 12.2589 8.10626 12.2726 8.07085C12.2862 8.03545 12.3068 8.00315 12.3332 7.97588C12.3596 7.94862 12.3912 7.92693 12.4262 7.91212C12.4611 7.89732 12.4986 7.88968 12.5366 7.88968C12.5745 7.88968 12.6121 7.89732 12.647 7.91212C12.682 7.92693 12.7136 7.94862 12.74 7.97588C12.7664 8.00315 12.787 8.03545 12.8006 8.07085C12.8143 8.10626 12.8207 8.14405 12.8194 8.18197C12.8194 8.31647 12.8593 8.44795 12.9341 8.55979C13.0088 8.67162 13.115 8.75878 13.2392 8.81026C13.3635 8.86173 13.5002 8.87519 13.6322 8.84895C13.7641 8.82271 13.8853 8.75795 13.9804 8.66284C14.0755 8.56773 14.1402 8.44656 14.1665 8.31464C14.1927 8.18273 14.1792 8.04599 14.1278 7.92173C14.0763 7.79746 13.9891 7.69126 13.8773 7.61653C13.7655 7.54181 13.634 7.50192 13.4995 7.50192C13.1847 7.50175 12.8817 7.38246 12.6513 7.16801C12.4208 6.95357 12.2801 6.65987 12.2574 6.34592C12.2346 6.03198 12.3315 5.72106 12.5286 5.47564C12.7257 5.23022 13.0084 5.06849 13.3199 5.02294V4.54416C13.3223 4.47075 13.3531 4.40116 13.4059 4.35008C13.4587 4.29901 13.5293 4.27045 13.6027 4.27045C13.6762 4.27045 13.7467 4.29901 13.7995 4.35008C13.8523 4.40116 13.8832 4.47075 13.8856 4.54416V5.07112C14.1355 5.15268 14.3533 5.31119 14.5078 5.52397C14.6622 5.73676 14.7454 5.99294 14.7455 6.25587H14.7468ZM7.18082 10.0407C6.99532 9.62608 6.85149 9.19407 6.75145 8.75102C6.50896 7.68184 6.52397 6.57035 6.79523 5.50811C7.0665 4.44587 7.58625 3.46328 8.31168 2.64127C9.03711 1.81927 9.94746 1.18138 10.9677 0.780152C11.988 0.378922 13.089 0.225836 14.18 0.333503C15.2711 0.44117 16.3209 0.80651 17.2431 1.39943C18.1652 1.99234 18.9333 2.79587 19.4841 3.74381C20.0349 4.69175 20.3525 5.75699 20.4109 6.85176C20.4693 7.94653 20.2668 9.03952 19.82 10.0407H17.7131C18.2248 9.27735 18.5194 8.38933 18.5656 7.47152C18.6117 6.55371 18.4076 5.64061 17.975 4.82983C17.5424 4.01904 16.8976 3.34104 16.1096 2.8683C15.3215 2.39556 14.4198 2.14584 13.5009 2.14584C12.5819 2.14584 11.6802 2.39556 10.8922 2.8683C10.1041 3.34104 9.45933 4.01904 9.02675 4.82983C8.59416 5.64061 8.39003 6.55371 8.43616 7.47152C8.4823 8.38933 8.77696 9.27735 9.28867 10.0407H7.18082ZM21.4036 19.5324C21.5671 19.5233 21.721 19.4521 21.8338 19.3334C21.9466 19.2146 22.0098 19.0573 22.0105 18.8935V16.3737C22.0097 16.2101 21.9466 16.0529 21.8339 15.9342C21.7213 15.8156 21.5676 15.7443 21.4042 15.7351H21.3719H15.1624C14.8726 15.7361 14.5949 15.8518 14.39 16.0567C14.185 16.2617 14.0695 16.5394 14.0685 16.8293V18.4404C14.0696 18.7301 14.1852 19.0078 14.3901 19.2127C14.595 19.4176 14.8726 19.5332 15.1624 19.5342H21.3707C21.3817 19.5342 21.3926 19.5342 21.4036 19.5342V19.5324ZM4.24807 19.5693L4.26057 18.3272L6.48492 17.9219C6.57534 17.9047 6.66774 17.9004 6.75937 17.9091C6.84995 17.9188 6.93868 17.9414 7.02286 17.9762L15.0776 21.2051C15.1081 21.2167 15.1301 21.2258 15.1459 21.2325C15.1618 21.2392 15.1865 21.2511 15.2069 21.263C15.3964 21.3516 15.5563 21.4929 15.6674 21.6701C15.7671 21.8438 15.8115 22.0436 15.7949 22.2431C15.7944 22.2517 15.7944 22.2602 15.7949 22.2688C15.7925 22.3278 15.7855 22.3865 15.7742 22.4444C15.7621 22.5059 15.7446 22.5661 15.7217 22.6243C15.7089 22.6567 15.6976 22.6835 15.6869 22.7048C15.6763 22.7262 15.6613 22.7539 15.6452 22.7811C15.6412 22.7872 15.6378 22.7942 15.6345 22.8006C15.5116 22.9637 15.3507 23.0943 15.1658 23.1809C15.1295 23.2004 15.1109 23.2095 15.1011 23.2141H15.0984L14.8803 23.2751C14.684 23.3338 14.4738 23.3258 14.2826 23.2522C12.6295 22.649 10.9723 22.0751 9.30971 21.4945C9.27445 21.481 9.23684 21.4747 9.1991 21.476C9.16137 21.4773 9.12428 21.4862 9.09003 21.5021C9.05578 21.518 9.02508 21.5406 8.99973 21.5686C8.97439 21.5966 8.95492 21.6294 8.94249 21.665C8.93005 21.7007 8.9249 21.7384 8.92734 21.7761C8.92978 21.8138 8.93976 21.8506 8.95668 21.8844C8.97361 21.9181 8.99714 21.9481 9.02588 21.9726C9.05462 21.9971 9.08799 22.0156 9.124 22.0269L12.7728 23.3016L14.0905 23.7826C14.2407 23.8386 14.3988 23.8705 14.5589 23.8771C14.6748 23.8815 14.7908 23.8721 14.9044 23.849C15.0403 23.848 15.1738 23.8125 15.2923 23.746C15.3073 23.7415 15.3219 23.7359 15.3359 23.7292L15.3798 23.7118C15.418 23.6966 15.4491 23.6813 15.4713 23.6709L21.4994 21.2075C21.517 21.2021 21.534 21.195 21.5503 21.1865L23.6365 20.3326L23.6704 20.3189C23.8103 20.2679 23.959 20.2454 24.1077 20.2526C24.2565 20.2597 24.4023 20.2965 24.5367 20.3607C24.8151 20.4892 25.0348 20.7178 25.1521 21.0011L25.1674 21.0377C25.2173 21.1701 25.2401 21.3114 25.2342 21.4528C25.2283 21.5943 25.194 21.7331 25.1332 21.861C24.9776 22.1735 24.7291 22.4301 24.4218 22.5957L16.8302 26.926C13.9417 28.5728 11.5877 27.5472 9.14138 26.4805C7.58855 25.8032 6.00034 25.1106 4.19348 25.0274V24.9624V24.9637L4.22825 21.363L4.23862 20.3494C4.23908 20.3401 4.23908 20.3309 4.23862 20.3216V20.2143L4.24533 19.5693H4.24807ZM3.02215 17.4776L1.08416 17.4578C1.07684 17.4578 1.06952 17.4578 1.0622 17.4578H1.06007C0.882495 17.4568 0.711419 17.5245 0.582627 17.6468C0.453835 17.769 0.377304 17.9364 0.369042 18.1137C0.369042 18.1198 0.369042 18.1256 0.369042 18.1317L0.299817 24.8996C0.299817 24.9072 0.299817 24.9142 0.299817 24.9216V24.924C0.298762 25.1016 0.366457 25.2727 0.488729 25.4015C0.611 25.5303 0.778364 25.6068 0.955775 25.615C0.961769 25.6147 0.967774 25.6147 0.973768 25.615L2.93829 25.6352C3.11912 25.6364 3.29315 25.5663 3.42258 25.44C3.55202 25.3137 3.62641 25.1414 3.62962 24.9606L3.67597 20.3436C3.67597 20.3363 3.67597 20.3289 3.67597 20.3216V17.9869C3.63704 17.8426 3.55228 17.715 3.43445 17.6231C3.31663 17.5313 3.17214 17.4802 3.02276 17.4776H3.02215ZM16.2819 22.7314C16.3011 22.6723 16.3167 22.6121 16.3286 22.5511C16.3463 22.4622 16.3565 22.3719 16.3591 22.2813V22.2755C16.3833 21.9638 16.3119 21.652 16.1544 21.382C15.9887 21.1117 15.7484 20.895 15.4625 20.758H15.46C15.4335 20.7446 15.4039 20.7312 15.3716 20.7168C15.3393 20.7025 15.3045 20.6882 15.2801 20.6784L7.23236 17.4523C6.96431 17.3419 6.66984 17.3124 6.3852 17.3672L4.24136 17.7579V12.974C4.24321 12.3468 4.49319 11.7458 4.9367 11.3023C5.38021 10.8588 5.98121 10.6088 6.60842 10.607H21.1353V15.1682H15.1624C14.7225 15.1695 14.301 15.3448 13.99 15.6559C13.679 15.967 13.5037 16.3885 13.5025 16.8284V18.4394C13.5037 18.8793 13.6789 19.3008 13.99 19.6118C14.301 19.9228 14.7226 20.098 15.1624 20.099H21.1353V20.7479L16.2819 22.7314Z" stroke="black" stroke-width="0.6"/>
</svg>
