<svg width="26" height="29" viewBox="0 0 26 29" fill="none" xmlns="http://www.w3.org/2000/svg">
<path fill-rule="evenodd" clip-rule="evenodd" d="M14.7468 6.25661C14.748 6.29453 14.7416 6.33232 14.728 6.36773C14.7143 6.40313 14.6937 6.43543 14.6673 6.46269C14.6409 6.48996 14.6093 6.51165 14.5744 6.52645C14.5394 6.54126 14.5019 6.54889 14.4639 6.54889C14.426 6.54889 14.3884 6.54126 14.3535 6.52645C14.3185 6.51165 14.2869 6.48996 14.2605 6.46269C14.2342 6.43543 14.2135 6.40313 14.1999 6.36773C14.1862 6.33232 14.1798 6.29453 14.1811 6.25661C14.1812 6.12195 14.1414 5.99028 14.0666 5.87826C13.9919 5.76623 13.8856 5.6789 13.7612 5.6273C13.6369 5.57569 13.5 5.56214 13.3679 5.58836C13.2358 5.61458 13.1145 5.67939 13.0192 5.77459C12.924 5.86979 12.8591 5.9911 12.8328 6.12317C12.8066 6.25524 12.82 6.39214 12.8716 6.51654C12.9231 6.64095 13.0104 6.74727 13.1224 6.82205C13.2344 6.89683 13.366 6.93672 13.5007 6.93666C13.8063 6.93698 14.1012 7.04959 14.3292 7.25309C14.5573 7.45659 14.7026 7.73678 14.7376 8.0404C14.7725 8.34403 14.6947 8.64992 14.5189 8.89992C14.3431 9.14993 14.0816 9.32663 13.784 9.39642V9.8996C13.7842 9.94937 13.7709 9.99825 13.7456 10.0411H17.0132C17.5453 9.37886 17.8794 8.57966 17.9768 7.73572C18.0743 6.89179 17.9312 6.03749 17.564 5.27139C17.1968 4.5053 16.6205 3.85863 15.9016 3.40598C15.1826 2.95333 14.3504 2.71315 13.5009 2.71315C12.6513 2.71315 11.8191 2.95333 11.1002 3.40598C10.3812 3.85863 9.80495 4.5053 9.43776 5.27139C9.07057 6.03749 8.92744 6.89179 9.0249 7.73572C9.12235 8.57966 9.45641 9.37886 9.98854 10.0411H13.2549C13.2298 9.99817 13.2167 9.94932 13.2168 9.8996V9.39642C12.9429 9.33248 12.6986 9.17775 12.5238 8.95739C12.3489 8.73703 12.2538 8.464 12.2538 8.1827C12.2525 8.14478 12.2589 8.10699 12.2726 8.07159C12.2862 8.03618 12.3068 8.00388 12.3332 7.97662C12.3596 7.94935 12.3912 7.92766 12.4262 7.91286C12.4611 7.89805 12.4986 7.89042 12.5366 7.89042C12.5745 7.89042 12.6121 7.89805 12.647 7.91286C12.682 7.92766 12.7136 7.94935 12.74 7.97662C12.7664 8.00388 12.787 8.03618 12.8006 8.07159C12.8143 8.10699 12.8207 8.14478 12.8194 8.1827C12.8194 8.3172 12.8593 8.44869 12.9341 8.56052C13.0088 8.67235 13.115 8.75952 13.2392 8.81099C13.3635 8.86246 13.5002 8.87593 13.6322 8.84969C13.7641 8.82345 13.8853 8.75868 13.9804 8.66357C14.0755 8.56846 14.1402 8.44729 14.1665 8.31537C14.1927 8.18346 14.1792 8.04672 14.1278 7.92246C14.0763 7.7982 13.9891 7.69199 13.8773 7.61726C13.7655 7.54254 13.634 7.50265 13.4995 7.50265C13.1847 7.50248 12.8817 7.38319 12.6513 7.16875C12.4208 6.9543 12.2801 6.6606 12.2574 6.34666C12.2346 6.03271 12.3315 5.72179 12.5286 5.47637C12.7257 5.23095 13.0084 5.06922 13.3199 5.02367V4.54489C13.3223 4.47149 13.3531 4.40189 13.4059 4.35082C13.4587 4.29974 13.5293 4.27118 13.6027 4.27118C13.6762 4.27118 13.7467 4.29974 13.7995 4.35082C13.8523 4.40189 13.8832 4.47149 13.8856 4.54489V5.07186C14.1355 5.15341 14.3533 5.31192 14.5078 5.52471C14.6622 5.73749 14.7454 5.99367 14.7455 6.25661H14.7468ZM7.18082 10.0414C6.99532 9.62681 6.85149 9.1948 6.75145 8.75175C6.50896 7.68257 6.52397 6.57108 6.79523 5.50884C7.0665 4.4466 7.58625 3.46401 8.31168 2.64201C9.03711 1.82 9.94746 1.18211 10.9677 0.780884C11.988 0.379655 13.089 0.226568 14.18 0.334235C15.2711 0.441902 16.3209 0.807242 17.2431 1.40016C18.1652 1.99307 18.9333 2.7966 19.4841 3.74454C20.0349 4.69249 20.3525 5.75772 20.4109 6.85249C20.4693 7.94726 20.2668 9.04025 19.82 10.0414H17.7131C18.2248 9.27808 18.5194 8.39006 18.5656 7.47225C18.6117 6.55444 18.4076 5.64134 17.975 4.83056C17.5424 4.01977 16.8976 3.34177 16.1096 2.86903C15.3215 2.39629 14.4198 2.14657 13.5009 2.14657C12.5819 2.14657 11.6802 2.39629 10.8922 2.86903C10.1041 3.34177 9.45933 4.01977 9.02675 4.83056C8.59416 5.64134 8.39003 6.55444 8.43616 7.47225C8.4823 8.39006 8.77696 9.27808 9.28867 10.0414H7.18082ZM21.4036 19.5331C21.5671 19.524 21.721 19.4528 21.8338 19.3341C21.9466 19.2154 22.0098 19.058 22.0105 18.8943V16.3744C22.0097 16.2108 21.9466 16.0536 21.8339 15.9349C21.7213 15.8163 21.5676 15.7451 21.4042 15.7358H21.3719H15.1624C14.8726 15.7369 14.5949 15.8525 14.39 16.0575C14.185 16.2625 14.0695 16.5402 14.0685 16.83V18.4411C14.0696 18.7309 14.1852 19.0085 14.3901 19.2134C14.595 19.4183 14.8726 19.5339 15.1624 19.535H21.3707C21.3817 19.535 21.3926 19.535 21.4036 19.535V19.5331ZM4.24807 19.57L4.26057 18.3279L6.48492 17.9227C6.57534 17.9055 6.66774 17.9012 6.75937 17.9099C6.84995 17.9195 6.93868 17.9421 7.02286 17.9769L15.0776 21.2058C15.1081 21.2174 15.1301 21.2265 15.1459 21.2333C15.1618 21.24 15.1865 21.2519 15.2069 21.2638C15.3964 21.3523 15.5563 21.4937 15.6674 21.6709C15.7671 21.8445 15.8115 22.0444 15.7949 22.2439C15.7944 22.2524 15.7944 22.261 15.7949 22.2695C15.7925 22.3285 15.7855 22.3872 15.7742 22.4451C15.7621 22.5066 15.7446 22.5668 15.7217 22.6251C15.7089 22.6574 15.6976 22.6842 15.6869 22.7056C15.6763 22.7269 15.6613 22.7547 15.6452 22.7818C15.6412 22.7879 15.6378 22.7949 15.6345 22.8013C15.5116 22.9645 15.3507 23.095 15.1658 23.1816C15.1295 23.2011 15.1109 23.2103 15.1011 23.2149H15.0984L14.8803 23.2758C14.684 23.3346 14.4738 23.3265 14.2826 23.253C12.6295 22.6498 10.9723 22.0758 9.30971 21.4952C9.27445 21.4817 9.23684 21.4754 9.1991 21.4767C9.16137 21.478 9.12428 21.4869 9.09003 21.5028C9.05578 21.5187 9.02508 21.5413 8.99973 21.5693C8.97439 21.5973 8.95492 21.6301 8.94249 21.6657C8.93005 21.7014 8.9249 21.7392 8.92734 21.7769C8.92978 21.8145 8.93976 21.8513 8.95668 21.8851C8.97361 21.9188 8.99714 21.9489 9.02588 21.9733C9.05462 21.9978 9.08799 22.0163 9.124 22.0277L12.7728 23.3024L14.0905 23.7833C14.2407 23.8393 14.3988 23.8712 14.5589 23.8778C14.6748 23.8822 14.7908 23.8728 14.9044 23.8498C15.0403 23.8487 15.1738 23.8132 15.2923 23.7467C15.3073 23.7422 15.3219 23.7366 15.3359 23.7299L15.3798 23.7125C15.418 23.6973 15.4491 23.682 15.4713 23.6717L21.4994 21.2083C21.517 21.2028 21.534 21.1958 21.5503 21.1872L23.6365 20.3333L23.6704 20.3196C23.8103 20.2687 23.959 20.2461 24.1077 20.2533C24.2565 20.2605 24.4023 20.2972 24.5367 20.3614C24.8151 20.4899 25.0348 20.7186 25.1521 21.0018L25.1674 21.0384C25.2173 21.1709 25.2401 21.3121 25.2342 21.4536C25.2283 21.595 25.194 21.7339 25.1332 21.8618C24.9776 22.1742 24.7291 22.4308 24.4218 22.5964L16.8302 26.9268C13.9417 28.5735 11.5877 27.548 9.14138 26.4812C7.58855 25.8039 6.00034 25.1114 4.19348 25.0281V24.9632V24.9644L4.22825 21.3638L4.23862 20.3501C4.23908 20.3409 4.23908 20.3316 4.23862 20.3224V20.215L4.24533 19.57H4.24807ZM3.02215 17.4783L1.08416 17.4585C1.07684 17.4585 1.06952 17.4585 1.0622 17.4585H1.06007C0.882495 17.4575 0.711419 17.5253 0.582627 17.6475C0.453835 17.7698 0.377304 17.9371 0.369042 18.1145C0.369042 18.1206 0.369042 18.1264 0.369042 18.1325L0.299817 24.9003C0.299817 24.908 0.299817 24.915 0.299817 24.9223V24.9247C0.298762 25.1023 0.366457 25.2735 0.488729 25.4023C0.611 25.5311 0.778364 25.6076 0.955775 25.6158C0.961769 25.6155 0.967774 25.6155 0.973768 25.6158L2.93829 25.6359C3.11912 25.6371 3.29315 25.567 3.42258 25.4407C3.55202 25.3144 3.62641 25.1421 3.62962 24.9613L3.67597 20.3443C3.67597 20.337 3.67597 20.3297 3.67597 20.3224V17.9876C3.63704 17.8434 3.55228 17.7157 3.43445 17.6238C3.31663 17.532 3.17214 17.4809 3.02276 17.4783H3.02215ZM16.2819 22.7321C16.3011 22.673 16.3167 22.6128 16.3286 22.5519C16.3463 22.4629 16.3565 22.3727 16.3591 22.282V22.2762C16.3833 21.9645 16.3119 21.6528 16.1544 21.3827C15.9887 21.1124 15.7484 20.8958 15.4625 20.7587H15.46C15.4335 20.7453 15.4039 20.7319 15.3716 20.7176C15.3393 20.7032 15.3045 20.6889 15.2801 20.6792L7.23236 17.453C6.96431 17.3427 6.66984 17.3131 6.3852 17.368L4.24136 17.7586V12.9748C4.24321 12.3476 4.49319 11.7466 4.9367 11.303C5.38021 10.8595 5.98121 10.6096 6.60842 10.6077H21.1353V15.1689H15.1624C14.7225 15.1702 14.301 15.3455 13.99 15.6566C13.679 15.9677 13.5037 16.3892 13.5025 16.8291V18.4402C13.5037 18.88 13.6789 19.3015 13.99 19.6125C14.301 19.9235 14.7226 20.0987 15.1624 20.0997H21.1353V20.7487L16.2819 22.7321Z" stroke="white" stroke-width="0.6"/>
</svg>
