<svg width="16" height="23" viewBox="0 0 16 23" fill="none" xmlns="http://www.w3.org/2000/svg">
<path d="M5.05957 11.7451H10.6826C13.2006 11.7451 15.2422 13.7865 15.2422 16.3047C15.2422 17.3681 15.2425 18.3728 15.2383 18.999V19.002C15.2383 19.4443 14.9902 19.849 14.5967 20.0527L14.5869 20.0586C10.0159 22.3427 5.56165 22.3254 1.16504 20.0801L1.13867 20.0664L0.998047 19.9805C0.688351 19.7601 0.499136 19.3998 0.5 19.0127V16.3047C0.5 13.7868 2.54159 11.7453 5.05957 11.7451ZM7.87109 0.5C10.3875 0.5 12.4305 2.54316 12.4307 5.05957C12.4307 7.57615 10.3877 9.62012 7.87109 9.62012C5.35453 9.6201 3.31152 7.57614 3.31152 5.05957C3.31173 2.54316 5.35449 0.50002 7.87109 0.5Z" stroke="black"/>
</svg>
