<svg width="25" height="24" viewBox="0 0 25 24" fill="none" xmlns="http://www.w3.org/2000/svg">
<path d="M15.2613 18.7579L11.4878 23.5186C10.423 22.2777 7.88321 19.321 5.44047 16.4986L16.136 7.71765L15.2553 18.6275C15.2517 18.6717 15.254 18.7154 15.2613 18.7579ZM24.9705 8.18373V14.5491L17.6895 17.3694L24.9705 8.18373ZM24.5125 7.08656L16.405 17.315L17.2333 7.05566H24.3598C24.4139 7.05566 24.4625 7.07329 24.5125 7.08656ZM0 11.8502C0.871149 12.8268 2.3063 14.4712 3.95419 16.3723L0 19.6186V11.8502ZM0 23.2048V20.9651L4.63578 17.1592C6.50731 19.3215 8.57543 21.7231 10.3715 23.8155H0.610677C0.27384 23.8155 0 23.5417 0 23.2048ZM24.3598 23.8155H12.58L16.4129 18.9799L24.9705 15.6651V23.2048C24.9705 23.5417 24.6966 23.8155 24.3598 23.8155ZM11.2703 7.0557C10.4691 8.86617 8.99679 10.9055 7.69618 12.5183C7.30079 13.0177 6.7077 13.3038 6.07302 13.3038C5.43831 13.3038 4.84522 13.0177 4.44465 12.5183C3.14404 10.8951 1.67695 8.85575 0.880961 7.0557H0.610455C0.272284 7.0557 0.00174646 7.33144 0.00174646 7.6644V10.3124C0.636461 10.9732 2.59779 13.2154 4.75679 15.7126L15.3022 7.0557H11.2703Z" fill="#6AC597"/>
<path d="M6.07633 0C3.44907 0 1.32129 2.12781 1.32129 4.74983C1.32129 6.72576 4.01965 10.3169 5.25954 11.8668C5.68094 12.3922 6.47169 12.3922 6.88791 11.8668C8.11907 10.337 10.8313 6.72525 10.8313 4.74983C10.8313 2.12781 8.70356 0 6.07633 0ZM6.07633 7.13256C4.7601 7.13256 3.6936 6.06086 3.6936 4.74983C3.6936 3.43881 4.7601 2.37231 6.07633 2.37231C7.38733 2.37231 8.45385 3.43881 8.45385 4.74983C8.45385 6.06086 7.38733 7.13256 6.07633 7.13256Z" fill="#6AC597"/>
</svg>
