<svg width="20" height="21" viewBox="0 0 20 21" fill="none" xmlns="http://www.w3.org/2000/svg">
<path d="M17.2707 1.62931H15.0621V1.05C15.0621 0.47069 14.5914 0 14.0121 0H13.7586C13.1793 0 12.7086 0.47069 12.7086 1.05V1.62931H6.66207V1.05C6.66207 0.47069 6.19138 0 5.61207 0H5.35862C4.77931 0 4.30862 0.47069 4.30862 1.05V1.62931H2.1C0.941379 1.62931 0 2.57069 0 3.72931V18.9C0 20.0586 0.941379 21 2.1 21H17.2345C18.3931 21 19.3345 20.0586 19.3345 18.9V3.72931C19.4069 2.57069 18.4293 1.62931 17.2707 1.62931ZM13.469 1.05C13.469 0.868966 13.6138 0.724138 13.7948 0.724138H14.0483C14.2293 0.724138 14.3741 0.868966 14.3741 1.05V1.99138V2.93276C14.3741 3.11379 14.2293 3.25862 14.0483 3.25862H13.7948C13.6138 3.25862 13.469 3.11379 13.469 2.93276V1.05ZM5.39483 0.724138H5.64828C5.82931 0.724138 5.97414 0.868966 5.97414 1.05V2.89655C5.97414 3.07759 5.82931 3.22241 5.64828 3.22241H5.39483C5.21379 3.22241 5.06897 3.07759 5.06897 2.89655V1.99138V1.05C5.03276 0.868966 5.17759 0.724138 5.39483 0.724138ZM2.13621 2.35345H4.34483V2.93276C4.34483 3.51207 4.81552 3.98276 5.39483 3.98276H5.64828C6.22759 3.98276 6.69828 3.51207 6.69828 2.93276V2.35345H12.7448V2.93276C12.7448 3.51207 13.2155 3.98276 13.7948 3.98276H14.0483C14.6276 3.98276 15.0983 3.51207 15.0983 2.93276V2.35345H17.3069C18.0672 2.35345 18.6828 2.96897 18.6828 3.72931V5.06897H0.724138V3.72931C0.724138 2.96897 1.37586 2.35345 2.13621 2.35345ZM17.2707 20.2759H2.13621C1.37586 20.2759 0.760345 19.6603 0.760345 18.9V5.7931H18.6828V18.8638C18.6828 19.6603 18.031 20.2759 17.2707 20.2759Z" fill="black"/>
<path d="M14.7363 11.731H11.1518L10.0656 8.32755C10.0294 8.18272 9.88454 8.0741 9.70351 8.0741C9.52247 8.0741 9.41385 8.18272 9.34144 8.32755L8.25523 11.731H4.67075C4.52592 11.731 4.3811 11.8396 4.30868 11.9844C4.23627 12.1293 4.30868 12.3103 4.45351 12.3827L7.35006 14.4827L6.26385 17.8862C6.22765 18.031 6.26385 18.212 6.40868 18.2844C6.4811 18.3206 6.55351 18.3569 6.62592 18.3569C6.69834 18.3569 6.77075 18.3206 6.84316 18.2844L9.73972 16.1844L12.6363 18.2844C12.7811 18.3931 12.9259 18.3931 13.0708 18.2844C13.2156 18.1758 13.2518 18.031 13.2156 17.8862L12.1294 14.4827L15.0259 12.3827C15.1708 12.2741 15.207 12.1293 15.1708 11.9844C15.1345 11.8396 14.8811 11.731 14.7363 11.731ZM11.4052 14.0482C11.2604 14.1569 11.2242 14.3017 11.2604 14.4465L12.0932 17.0172L9.88454 15.4241C9.81213 15.3879 9.73972 15.3517 9.6673 15.3517C9.59489 15.3517 9.52247 15.3879 9.45006 15.4241L7.24144 17.0172L8.0742 14.4465C8.11041 14.3017 8.0742 14.1206 7.92937 14.0482L5.72075 12.4551H8.43627C8.5811 12.4551 8.72592 12.3465 8.79834 12.2017L9.6311 9.63099L10.4639 12.2017C10.5001 12.3465 10.6449 12.4551 10.8259 12.4551H13.5414L11.4052 14.0482Z" fill="black"/>
</svg>
