<svg width="21" height="21" viewBox="0 0 21 21" fill="none" xmlns="http://www.w3.org/2000/svg">
<path d="M10.4995 3.30529C8.59135 3.30529 6.76091 4.06298 5.41199 5.4128C4.06217 6.76178 3.30448 8.5922 3.30448 10.5003C3.30448 12.4084 4.06217 14.2389 5.41199 15.5878C6.76097 16.9377 8.5914 17.6953 10.4995 17.6953C12.4076 17.6953 14.2381 16.9377 15.587 15.5878C16.9369 14.2389 17.6946 12.4084 17.6946 10.5003C17.692 8.593 16.9335 6.76431 15.5845 5.41518C14.2355 4.06605 12.407 3.30782 10.4995 3.30529ZM10.4995 17.1C8.7493 17.1 7.07013 16.4048 5.83258 15.1673C4.5951 13.9298 3.89992 12.2507 3.89992 10.5004C3.89992 8.75014 4.5951 7.07103 5.83258 5.83348C7.07007 4.59599 8.74925 3.90082 10.4995 3.90082C12.2498 3.90082 13.9289 4.59599 15.1664 5.83348C16.4039 7.07096 17.0991 8.75014 17.0991 10.5004C17.0974 12.2506 16.4014 13.9283 15.1639 15.1647C13.9273 16.4022 12.2496 17.0983 10.4995 17.1ZM20.1257 11.7675L20.5819 11.4211C20.848 11.1888 21 10.8535 21 10.5004C21 10.1473 20.848 9.812 20.5819 9.57971L20.1257 9.23338L20.4771 8.78061V8.77977C20.6731 8.48665 20.7331 8.12343 20.6418 7.78302C20.5506 7.44261 20.3166 7.15795 20.0007 7.00168L19.4694 6.78543L19.6916 6.25666V6.2575C19.8191 5.92469 19.7828 5.55219 19.5936 5.25064C19.4272 4.93642 19.1231 4.71849 18.7717 4.66188L18.2024 4.59008L18.2801 4.0216C18.3164 3.66768 18.1846 3.31797 17.9236 3.07639C17.682 2.81539 17.3315 2.68361 16.9776 2.72078L16.4091 2.79849L16.3373 2.22917C16.2807 1.87862 16.0636 1.5737 15.7494 1.40728C15.4478 1.21807 15.0753 1.18174 14.7425 1.3093L14.2137 1.53144L13.9975 1.00013H13.9983C13.8531 0.675772 13.5633 0.43756 13.217 0.358157C12.8766 0.253413 12.5075 0.315077 12.2194 0.523715L11.7666 0.874265L11.4203 0.418125C11.188 0.152039 10.8527 0 10.4996 0C10.1465 0 9.81116 0.152044 9.57888 0.418125L9.23254 0.874265L8.77893 0.522872C8.4909 0.314234 8.12175 0.25257 7.78135 0.357313C7.43501 0.436715 7.14613 0.674929 7.00084 0.999291L6.7846 1.5306L6.25582 1.30845C5.92385 1.1809 5.55135 1.21722 5.2498 1.40644C4.93558 1.57284 4.71765 1.87778 4.66104 2.22833L4.58924 2.79765L4.02076 2.71993C3.66684 2.68361 3.31713 2.81539 3.07555 3.07639C2.81455 3.31797 2.68277 3.66852 2.71994 4.02244L2.79765 4.59092L2.22917 4.66272C1.87778 4.71847 1.57283 4.9364 1.40644 5.25064C1.21723 5.55219 1.1809 5.92471 1.30845 6.25666L1.5306 6.78543L0.999292 7.00168C0.67493 7.14696 0.436718 7.43584 0.357314 7.78302C0.25257 8.12259 0.314234 8.49171 0.522873 8.77977L0.874266 9.23337L0.418125 9.57971C0.15204 9.81199 0 10.1473 0 10.5004C0 10.8535 0.152046 11.1888 0.418125 11.4211L0.874266 11.7683L0.522029 12.2211C0.313391 12.5091 0.251727 12.8783 0.35647 13.2178C0.435872 13.565 0.674086 13.8539 0.998449 13.9992L1.52976 14.2154L1.30761 14.7442C1.18006 15.0762 1.21638 15.4487 1.40559 15.7502C1.572 16.0644 1.87694 16.2832 2.22749 16.339L2.79681 16.4108L2.71909 16.9792C2.68277 17.3332 2.81454 17.6829 3.07555 17.9245C3.31713 18.1855 3.66768 18.3172 4.0216 18.2801L4.59008 18.2024L4.66188 18.7708C4.71763 19.1222 4.93556 19.4272 5.2498 19.5936C5.55135 19.7828 5.92387 19.8191 6.25666 19.6915L6.78544 19.4694L7.00168 20.0007H7.00084C7.15711 20.3175 7.44178 20.5515 7.78219 20.6427C8.12259 20.7339 8.48666 20.6731 8.77893 20.4771L9.23254 20.1257L9.57887 20.5819H9.57972C9.81116 20.848 10.1474 21 10.4996 21C10.8527 21 11.188 20.848 11.4203 20.5819L11.7666 20.1257L12.2194 20.4771H12.2202C12.5134 20.6731 12.8766 20.7339 13.217 20.6427C13.5582 20.5515 13.8429 20.3175 13.9983 20.0007L14.2146 19.4694L14.7434 19.6915C15.077 19.8056 15.4436 19.7701 15.7494 19.5944C16.0552 19.4179 16.2697 19.118 16.3381 18.7725L16.4099 18.2032L16.9784 18.2809C17.3307 18.3046 17.6753 18.1753 17.9245 17.9253C18.1745 17.6761 18.3037 17.3306 18.2801 16.9792L18.2024 16.4108L18.7717 16.339C19.1172 16.2705 19.417 16.056 19.5936 15.751C19.7701 15.4453 19.8056 15.0787 19.6916 14.7442L19.4694 14.2154L20.0007 13.9992V14C20.3166 13.8437 20.5506 13.5591 20.6418 13.2187C20.7331 12.8783 20.6731 12.515 20.4771 12.2219L20.1257 11.7675ZM20.0675 13.0649C20.0354 13.2313 19.9272 13.3732 19.776 13.4492L19.1003 13.7254H19.0994C19.0251 13.7559 18.966 13.815 18.9364 13.8902C18.9119 13.951 18.8866 14.0118 18.8612 14.0709H18.8604C18.8291 14.1453 18.8291 14.2289 18.8604 14.3032L19.1433 14.9756V14.9764C19.2303 15.3126 19.0318 15.6564 18.6973 15.7493L17.9701 15.8414C17.8907 15.8515 17.818 15.8938 17.7699 15.958C17.731 16.0095 17.6922 16.0602 17.6525 16.11C17.6026 16.1734 17.5807 16.2545 17.5916 16.3347L17.6913 17.0612C17.6871 17.4083 17.4067 17.6888 17.0586 17.6913L16.3322 17.5916H16.333C16.2528 17.5806 16.1717 17.6026 16.1083 17.6524C16.0577 17.6921 16.007 17.731 15.9554 17.7699C15.8913 17.8189 15.849 17.8907 15.8389 17.9709L15.7468 18.6973H15.7477C15.6539 19.0318 15.3101 19.2303 14.9739 19.1442L14.3015 18.8612C14.2272 18.83 14.1436 18.83 14.0692 18.8612C14.0084 18.8874 13.9476 18.9127 13.8868 18.9372C13.8116 18.9668 13.7525 19.0259 13.7221 19.1003L13.4467 19.7752V19.776C13.2702 20.075 12.8867 20.1781 12.5843 20.0066L12.0073 19.5589C11.944 19.5099 11.8629 19.4888 11.7835 19.4998C11.7193 19.5091 11.6551 19.5175 11.5892 19.5251C11.509 19.5344 11.4363 19.5767 11.3873 19.6409L10.9455 20.2229C10.6981 20.4661 10.301 20.4661 10.0527 20.2229L9.61093 19.6409C9.56193 19.5767 9.48929 19.5344 9.40905 19.5251C9.344 19.5175 9.28065 19.5091 9.21646 19.4998C9.20294 19.4981 9.18858 19.4964 9.17507 19.4964C9.10918 19.4973 9.04498 19.5192 8.99261 19.5589L8.41483 20.0075C8.11244 20.1789 7.72809 20.0759 7.5524 19.7769L7.27619 19.1011V19.1003C7.24578 19.0259 7.18665 18.9668 7.11148 18.9364C7.05066 18.9127 6.99153 18.8865 6.93071 18.8612C6.85638 18.83 6.77275 18.83 6.69842 18.8612L6.02604 19.1442V19.145C5.86471 19.1982 5.68816 19.1737 5.54795 19.0791C5.39591 19.0048 5.2861 18.8637 5.25231 18.6982L5.16023 17.9709C5.1501 17.8915 5.10871 17.8189 5.04367 17.7707C4.99298 17.7319 4.94146 17.693 4.89162 17.6533C4.82827 17.6035 4.74718 17.5815 4.66777 17.5925L3.94133 17.6922C3.77154 17.7014 3.60767 17.633 3.49617 17.5055C3.36862 17.394 3.29936 17.2293 3.30949 17.0603L3.40832 16.3347H3.40917C3.42015 16.2545 3.39819 16.1742 3.34835 16.11C3.30865 16.0593 3.26895 16.0087 3.23094 15.9571C3.18195 15.8929 3.11015 15.8515 3.0299 15.8414L2.30261 15.7493H2.30346C2.13705 15.7147 1.99598 15.6057 1.92166 15.4529C1.82706 15.3126 1.8034 15.1361 1.85662 14.9748L2.13959 14.3024C2.17085 14.228 2.17085 14.1444 2.13959 14.0701C2.11341 14.0093 2.08807 13.9485 2.06357 13.8876C2.03401 13.8133 1.97488 13.7533 1.8997 13.7229L1.22479 13.4476C1.07359 13.3715 0.965473 13.2296 0.933361 13.0632C0.878455 12.9027 0.900419 12.7262 0.994179 12.5851L1.44186 12.0082H1.44102C1.49086 11.9449 1.51197 11.8638 1.50099 11.7844C1.4917 11.7202 1.48325 11.6551 1.47565 11.5901C1.46636 11.5098 1.42412 11.4372 1.35993 11.3882L0.776247 10.9464C0.533818 10.6989 0.533818 10.3019 0.776247 10.0544L1.35908 9.6118C1.42328 9.56281 1.46467 9.49016 1.47396 9.40992C1.48156 9.34488 1.49001 9.28068 1.49761 9.21564H1.49846C1.50944 9.13624 1.48832 9.05515 1.43849 8.99179L0.990801 8.41485C0.897884 8.27379 0.875077 8.09724 0.929983 7.93676C0.962926 7.77036 1.07105 7.62845 1.22226 7.55244L1.89801 7.27707C1.97234 7.24667 2.03147 7.18754 2.06188 7.11236C2.08638 7.05154 2.11172 6.99072 2.1379 6.93075H2.13706C2.16831 6.85642 2.16831 6.77279 2.13706 6.69846L1.85408 6.02608C1.80171 5.86475 1.82621 5.68821 1.92166 5.548C1.99684 5.39595 2.13706 5.28615 2.30346 5.25235L3.0299 5.16028C3.1093 5.15014 3.18194 5.10875 3.23009 5.04371C3.26895 4.99303 3.30781 4.9415 3.3475 4.89082L3.34835 4.89167C3.39819 4.82831 3.42015 4.74722 3.40917 4.66697L3.30865 3.94137C3.29851 3.77159 3.36778 3.60771 3.49533 3.49622C3.60683 3.36867 3.77069 3.30025 3.94048 3.30954L4.66608 3.40837V3.40921C4.74548 3.42019 4.82657 3.39823 4.88994 3.34839C4.94062 3.30869 4.9913 3.26984 5.04283 3.23098H5.04367C5.10787 3.18283 5.14926 3.11019 5.15939 3.02994L5.25147 2.3035C5.2861 2.13794 5.39506 1.99687 5.54711 1.92255C5.68733 1.82794 5.86386 1.80429 6.0252 1.85751L6.69758 2.14048C6.77192 2.17174 6.85554 2.17174 6.92987 2.14048C6.98984 2.11514 7.05066 2.0898 7.11232 2.0653V2.06446C7.18666 2.03489 7.24579 1.97576 7.27619 1.90143L7.5524 1.22568C7.62842 1.07448 7.77033 0.96636 7.93673 0.934248C8.09722 0.879342 8.27376 0.901306 8.41482 0.995066L8.99175 1.44191C9.05595 1.49174 9.13619 1.51286 9.2156 1.50188C9.2798 1.49259 9.344 1.48499 9.40819 1.47823C9.48844 1.46809 9.56108 1.4267 9.61007 1.3625L10.0527 0.779668H10.0519C10.3002 0.536396 10.6972 0.536396 10.9447 0.779668L11.3882 1.35997C11.4372 1.42417 11.5098 1.46641 11.59 1.4757C11.6551 1.4833 11.7184 1.49175 11.7826 1.49935C11.862 1.51118 11.9431 1.49006 12.0065 1.44022L12.5843 0.991693C12.7262 0.898776 12.9027 0.875969 13.0624 0.930875C13.2288 0.963817 13.3707 1.07194 13.4475 1.22315L13.7237 1.8989H13.7229C13.7533 1.97324 13.8124 2.03236 13.8876 2.06277C13.9484 2.08727 14.0092 2.11261 14.0684 2.13795C14.1427 2.1692 14.2263 2.1692 14.3007 2.13795L14.973 1.85498C15.1344 1.80176 15.3109 1.82541 15.4511 1.92002C15.6032 1.99435 15.713 2.13541 15.7468 2.30181L15.8388 3.02826C15.849 3.1085 15.8904 3.1803 15.9554 3.22929C16.0069 3.26815 16.0576 3.30701 16.1075 3.34671C16.1708 3.39654 16.2519 3.4185 16.3313 3.40752L17.0577 3.30785C17.2275 3.29771 17.3914 3.36698 17.5029 3.49453C17.6305 3.60603 17.6997 3.76989 17.6896 3.93884L17.5907 4.66528H17.5899C17.5789 4.74468 17.6009 4.82577 17.6507 4.88913C17.6904 4.93982 17.7293 4.9905 17.7681 5.04202C17.8171 5.10622 17.8889 5.14846 17.9692 5.15859L18.6956 5.25066C18.8612 5.28445 19.0022 5.39342 19.0766 5.54546C19.1712 5.68653 19.1957 5.86308 19.1416 6.02355L18.8586 6.69593L18.8595 6.69678C18.8282 6.77111 18.8282 6.85474 18.8595 6.92907C18.8857 6.98904 18.911 7.0507 18.9355 7.11152C18.9651 7.18585 19.0242 7.24498 19.0985 7.27539L19.7734 7.55075L19.7743 7.5516C20.0733 7.72729 20.1764 8.11162 20.0049 8.41403L19.5572 8.99096V8.99012C19.5082 9.05347 19.4862 9.13456 19.4981 9.21397C19.5074 9.27901 19.5158 9.34321 19.5234 9.40825C19.5327 9.4885 19.5741 9.56199 19.6391 9.61013L20.2211 10.0519C20.4636 10.3002 20.4636 10.6973 20.2211 10.9448L19.64 11.3891C19.5758 11.4381 19.5336 11.5107 19.5243 11.5909C19.5167 11.656 19.5082 11.7193 19.4989 11.7835C19.4879 11.8629 19.5091 11.944 19.558 12.0074L20.0066 12.5852C20.1003 12.7271 20.1223 12.9036 20.0674 13.0641L20.0675 13.0649ZM9.95642 8.41659C9.95642 7.30245 9.12101 6.39523 8.09386 6.39523C7.06671 6.39523 6.2313 7.30158 6.2313 8.41659C6.2313 9.53073 7.06671 10.438 8.09386 10.438C9.12101 10.438 9.95642 9.5316 9.95642 8.41659ZM6.82675 8.41659C6.82675 7.63018 7.39523 6.99074 8.0938 6.99074C8.79237 6.99074 9.36084 7.63016 9.36084 8.41659C9.36169 9.20299 8.79321 9.84244 8.09464 9.84244C7.39523 9.84244 6.82759 9.20302 6.82759 8.41659H6.82675ZM12.9042 10.8458C11.8779 10.8458 11.0417 11.7522 11.0417 12.8672C11.0417 13.9814 11.8771 14.8886 12.9042 14.8886C13.9305 14.8886 14.7668 13.9822 14.7668 12.8672C14.7668 11.7531 13.9314 10.8458 12.9042 10.8458ZM12.9042 14.293C12.2057 14.293 11.6372 13.6535 11.6372 12.8671C11.6372 12.0807 12.2057 11.4412 12.9042 11.4412C13.6028 11.4412 14.1713 12.0807 14.1713 12.8671C14.1713 13.6535 13.6028 14.293 12.9042 14.293ZM13.466 6.56664L8.42493 14.7213C8.38354 14.7897 8.31681 14.8387 8.23994 14.8573C8.16223 14.8759 8.08114 14.8632 8.01271 14.8218C7.94514 14.7796 7.89699 14.7129 7.87925 14.6352C7.86151 14.5575 7.87587 14.4764 7.91811 14.4088L12.96 6.2541C13.0014 6.18568 13.0673 6.13669 13.145 6.11726C13.2219 6.09868 13.3038 6.11135 13.3714 6.15358C13.4398 6.19498 13.4879 6.26255 13.5057 6.34026C13.5234 6.41797 13.5091 6.49907 13.4668 6.56665L13.466 6.56664Z" fill="black"/>
</svg>
